M48
;GenerationSoftware,Autodesk,EAGLE,9.6.2*%
;CreationDate,2021-04-11T07:21:01Z*%
FMAT,2
ICI,OFF
METRIC,TZ,000.000
T6C0.350
T5C0.800
T4C0.813
T3C1.000
T2C2.000
T1C3.400
%
G90
M71
T1
X3800Y3800
X96300Y46300
X96300Y3700
X3700Y46200
T2
X32596Y35337
X53424Y35337
X32596Y12223
X53424Y12223
T3
X93190Y32820
X86690Y32820
X93190Y37320
X86690Y37320
X75250Y27820
X81750Y32320
X81750Y27820
X70210Y32720
X14390Y10360
X22010Y12900
X19470Y12900
X16930Y12900
X14390Y12900
X16930Y10360
X19470Y10360
X22010Y10360
X75250Y32320
X2730Y27300
X9230Y27300
X2730Y22800
X9230Y22800
X2770Y15220
X9270Y15220
X2770Y10720
X9270Y10720
X63710Y37220
X70210Y37220
X63710Y32720
X2790Y39300
X9290Y39300
X2790Y34800
X9290Y34800
X39200Y36480
X41740Y36480
X44280Y36480
X46820Y36480
T4
X18670Y40610
X37870Y40590
X48030Y40590
X37870Y44090
X48030Y44090
X37970Y47770
X48130Y47770
X29070Y47340
X13270Y5000
X18910Y47340
X29130Y44110
X18970Y44110
X28830Y40610
X10730Y5000
T5
X68160Y8240
X59270Y15860
X60540Y8240
X63080Y8240
X65620Y8240
X80860Y8240
X70700Y8240
X73240Y8240
X75780Y8240
X78320Y8240
X59270Y13320
X83400Y8240
X85940Y8240
X88480Y8240
X60540Y23480
X63080Y23480
X65620Y23480
X80860Y23480
X83400Y23480
X78320Y23480
X88480Y23480
X96100Y23480
X96100Y8240
X93560Y8240
X91020Y8240
X93560Y23480
X91020Y23480
X68160Y23480
X61810Y18400
X61810Y15860
X61810Y13320
X85940Y23480
X75780Y23480
X73240Y23480
X70700Y23480
X59270Y18400
T6
X36000Y21000
X29000Y25000
X32000Y23000
X78000Y17000
X25000Y3000
X85700Y14600
X84000Y20000
X87000Y16000
M30