G04 EAGLE Gerber RS-274X export*
G75*
%MOMM*%
%FSLAX34Y34*%
%LPD*%
%INTop Copper*%
%IPPOS*%
%AMOC8*
5,1,8,0,0,1.08239X$1,22.5*%
G01*
%ADD10R,1.508000X1.508000*%
%ADD11C,1.508000*%
%ADD12P,1.429621X8X202.500000*%
%ADD13P,1.429621X8X22.500000*%
%ADD14C,1.508000*%
%ADD15C,1.308000*%
%ADD16C,1.308000*%
%ADD17C,0.500000*%
%ADD18C,0.756400*%
%ADD19C,0.250000*%

G36*
X952466Y10165D02*
X952466Y10165D01*
X952490Y10162D01*
X952587Y10184D01*
X952685Y10200D01*
X952706Y10212D01*
X952730Y10217D01*
X952815Y10269D01*
X952902Y10316D01*
X952919Y10333D01*
X952940Y10346D01*
X953003Y10422D01*
X953072Y10494D01*
X953082Y10516D01*
X953097Y10534D01*
X953134Y10627D01*
X953175Y10717D01*
X953178Y10741D01*
X953187Y10763D01*
X953192Y10863D01*
X953203Y10961D01*
X953197Y10985D01*
X953199Y11009D01*
X953171Y11105D01*
X953150Y11202D01*
X953138Y11223D01*
X953131Y11246D01*
X953075Y11328D01*
X953024Y11413D01*
X953006Y11429D01*
X952992Y11449D01*
X952913Y11508D01*
X952837Y11573D01*
X952815Y11582D01*
X952796Y11596D01*
X952639Y11657D01*
X952516Y11690D01*
X946323Y15266D01*
X941266Y20323D01*
X937690Y26516D01*
X935839Y33424D01*
X935839Y40576D01*
X937690Y47484D01*
X941266Y53677D01*
X946323Y58734D01*
X952516Y62310D01*
X959424Y64161D01*
X966576Y64161D01*
X973484Y62310D01*
X979677Y58734D01*
X984734Y53677D01*
X988310Y47484D01*
X988343Y47361D01*
X988353Y47339D01*
X988357Y47315D01*
X988403Y47227D01*
X988444Y47137D01*
X988460Y47119D01*
X988472Y47098D01*
X988544Y47029D01*
X988611Y46956D01*
X988632Y46945D01*
X988650Y46928D01*
X988740Y46886D01*
X988827Y46839D01*
X988851Y46835D01*
X988873Y46825D01*
X988971Y46814D01*
X989070Y46796D01*
X989094Y46800D01*
X989117Y46797D01*
X989215Y46819D01*
X989313Y46834D01*
X989334Y46845D01*
X989358Y46850D01*
X989443Y46901D01*
X989531Y46946D01*
X989548Y46963D01*
X989569Y46976D01*
X989634Y47051D01*
X989703Y47123D01*
X989713Y47144D01*
X989729Y47163D01*
X989766Y47255D01*
X989809Y47345D01*
X989812Y47368D01*
X989821Y47391D01*
X989839Y47558D01*
X989839Y452442D01*
X989835Y452466D01*
X989838Y452490D01*
X989816Y452587D01*
X989800Y452685D01*
X989788Y452706D01*
X989783Y452730D01*
X989731Y452815D01*
X989684Y452902D01*
X989667Y452919D01*
X989654Y452940D01*
X989578Y453003D01*
X989506Y453072D01*
X989484Y453082D01*
X989466Y453097D01*
X989373Y453134D01*
X989283Y453175D01*
X989259Y453178D01*
X989237Y453187D01*
X989137Y453192D01*
X989039Y453203D01*
X989015Y453197D01*
X988991Y453199D01*
X988895Y453171D01*
X988798Y453150D01*
X988777Y453138D01*
X988754Y453131D01*
X988672Y453075D01*
X988587Y453024D01*
X988571Y453006D01*
X988551Y452992D01*
X988492Y452913D01*
X988427Y452837D01*
X988418Y452815D01*
X988404Y452796D01*
X988343Y452639D01*
X988310Y452516D01*
X984734Y446323D01*
X979677Y441266D01*
X973484Y437690D01*
X966576Y435839D01*
X959424Y435839D01*
X952516Y437690D01*
X946323Y441266D01*
X941266Y446323D01*
X937690Y452516D01*
X935839Y459424D01*
X935839Y466576D01*
X937690Y473484D01*
X941266Y479677D01*
X946323Y484734D01*
X952516Y488310D01*
X952639Y488343D01*
X952661Y488353D01*
X952685Y488357D01*
X952773Y488403D01*
X952863Y488444D01*
X952881Y488460D01*
X952902Y488472D01*
X952971Y488544D01*
X953044Y488611D01*
X953055Y488632D01*
X953072Y488650D01*
X953114Y488740D01*
X953161Y488827D01*
X953165Y488851D01*
X953175Y488873D01*
X953186Y488971D01*
X953204Y489070D01*
X953200Y489094D01*
X953203Y489117D01*
X953181Y489215D01*
X953166Y489313D01*
X953155Y489334D01*
X953150Y489358D01*
X953099Y489443D01*
X953054Y489531D01*
X953037Y489548D01*
X953024Y489569D01*
X952949Y489634D01*
X952877Y489703D01*
X952856Y489713D01*
X952837Y489729D01*
X952745Y489766D01*
X952655Y489809D01*
X952632Y489812D01*
X952609Y489821D01*
X952442Y489839D01*
X43826Y489839D01*
X43802Y489835D01*
X43778Y489838D01*
X43681Y489816D01*
X43583Y489800D01*
X43562Y489788D01*
X43538Y489783D01*
X43453Y489731D01*
X43365Y489684D01*
X43349Y489667D01*
X43328Y489654D01*
X43265Y489578D01*
X43196Y489506D01*
X43186Y489484D01*
X43171Y489466D01*
X43134Y489373D01*
X43092Y489283D01*
X43090Y489259D01*
X43081Y489237D01*
X43076Y489137D01*
X43065Y489039D01*
X43071Y489015D01*
X43069Y488991D01*
X43097Y488895D01*
X43118Y488798D01*
X43130Y488778D01*
X43137Y488754D01*
X43193Y488672D01*
X43244Y488587D01*
X43262Y488571D01*
X43276Y488552D01*
X43355Y488492D01*
X43431Y488427D01*
X43453Y488418D01*
X43472Y488404D01*
X43629Y488343D01*
X47484Y487310D01*
X53677Y483734D01*
X58734Y478677D01*
X62310Y472484D01*
X64161Y465576D01*
X64161Y458424D01*
X62310Y451516D01*
X58734Y445323D01*
X53677Y440266D01*
X47484Y436690D01*
X40576Y434839D01*
X33424Y434839D01*
X26516Y436690D01*
X20323Y440266D01*
X15266Y445323D01*
X11690Y451516D01*
X11657Y451639D01*
X11647Y451661D01*
X11643Y451685D01*
X11597Y451773D01*
X11556Y451863D01*
X11540Y451881D01*
X11528Y451902D01*
X11456Y451971D01*
X11389Y452044D01*
X11368Y452055D01*
X11350Y452072D01*
X11260Y452114D01*
X11173Y452161D01*
X11149Y452165D01*
X11127Y452175D01*
X11029Y452186D01*
X10930Y452204D01*
X10906Y452200D01*
X10883Y452203D01*
X10785Y452181D01*
X10687Y452166D01*
X10666Y452155D01*
X10642Y452150D01*
X10557Y452099D01*
X10469Y452054D01*
X10452Y452037D01*
X10431Y452024D01*
X10366Y451949D01*
X10297Y451877D01*
X10287Y451856D01*
X10271Y451837D01*
X10234Y451745D01*
X10191Y451655D01*
X10188Y451632D01*
X10179Y451609D01*
X10161Y451442D01*
X10161Y395891D01*
X10176Y395795D01*
X10186Y395698D01*
X10196Y395674D01*
X10200Y395648D01*
X10246Y395562D01*
X10286Y395473D01*
X10303Y395454D01*
X10316Y395431D01*
X10386Y395364D01*
X10452Y395292D01*
X10475Y395280D01*
X10494Y395262D01*
X10582Y395221D01*
X10668Y395174D01*
X10693Y395169D01*
X10717Y395158D01*
X10814Y395147D01*
X10910Y395130D01*
X10936Y395134D01*
X10961Y395131D01*
X11057Y395152D01*
X11153Y395166D01*
X11176Y395178D01*
X11202Y395183D01*
X11285Y395233D01*
X11372Y395277D01*
X11391Y395296D01*
X11413Y395309D01*
X11476Y395383D01*
X11544Y395453D01*
X11560Y395481D01*
X11573Y395496D01*
X11585Y395527D01*
X11625Y395600D01*
X12675Y398135D01*
X15225Y400685D01*
X18557Y402065D01*
X37243Y402065D01*
X40575Y400685D01*
X43125Y398135D01*
X44505Y394803D01*
X44505Y391197D01*
X43125Y387865D01*
X40575Y385315D01*
X37243Y383935D01*
X18557Y383935D01*
X15225Y385315D01*
X12675Y387865D01*
X11625Y390400D01*
X11574Y390483D01*
X11528Y390569D01*
X11510Y390587D01*
X11496Y390609D01*
X11420Y390672D01*
X11350Y390738D01*
X11326Y390749D01*
X11306Y390766D01*
X11215Y390801D01*
X11127Y390842D01*
X11101Y390845D01*
X11077Y390854D01*
X10979Y390858D01*
X10883Y390869D01*
X10857Y390864D01*
X10831Y390865D01*
X10737Y390838D01*
X10642Y390817D01*
X10620Y390803D01*
X10595Y390796D01*
X10515Y390741D01*
X10431Y390691D01*
X10414Y390671D01*
X10393Y390656D01*
X10334Y390578D01*
X10271Y390504D01*
X10261Y390479D01*
X10246Y390459D01*
X10216Y390366D01*
X10179Y390276D01*
X10176Y390243D01*
X10170Y390225D01*
X10170Y390192D01*
X10161Y390109D01*
X10161Y350891D01*
X10176Y350795D01*
X10186Y350698D01*
X10196Y350674D01*
X10200Y350648D01*
X10246Y350562D01*
X10286Y350473D01*
X10303Y350454D01*
X10316Y350431D01*
X10386Y350364D01*
X10452Y350292D01*
X10475Y350280D01*
X10494Y350262D01*
X10582Y350221D01*
X10668Y350174D01*
X10693Y350169D01*
X10717Y350158D01*
X10814Y350147D01*
X10910Y350130D01*
X10936Y350134D01*
X10961Y350131D01*
X11057Y350152D01*
X11153Y350166D01*
X11176Y350178D01*
X11202Y350183D01*
X11285Y350233D01*
X11372Y350277D01*
X11391Y350296D01*
X11413Y350309D01*
X11476Y350383D01*
X11544Y350453D01*
X11560Y350481D01*
X11573Y350496D01*
X11585Y350527D01*
X11625Y350600D01*
X12675Y353135D01*
X15225Y355685D01*
X18557Y357065D01*
X37243Y357065D01*
X40575Y355685D01*
X43125Y353135D01*
X44505Y349803D01*
X44505Y346197D01*
X43125Y342865D01*
X40575Y340315D01*
X37243Y338935D01*
X18557Y338935D01*
X15225Y340315D01*
X12675Y342865D01*
X11625Y345400D01*
X11574Y345483D01*
X11528Y345569D01*
X11510Y345587D01*
X11496Y345609D01*
X11420Y345672D01*
X11350Y345738D01*
X11326Y345749D01*
X11306Y345766D01*
X11215Y345801D01*
X11127Y345842D01*
X11101Y345845D01*
X11077Y345854D01*
X10979Y345858D01*
X10883Y345869D01*
X10857Y345864D01*
X10831Y345865D01*
X10737Y345838D01*
X10642Y345817D01*
X10620Y345803D01*
X10595Y345796D01*
X10515Y345741D01*
X10431Y345691D01*
X10414Y345671D01*
X10393Y345656D01*
X10334Y345578D01*
X10271Y345504D01*
X10261Y345479D01*
X10246Y345459D01*
X10216Y345366D01*
X10179Y345276D01*
X10176Y345243D01*
X10170Y345225D01*
X10170Y345192D01*
X10161Y345109D01*
X10161Y277340D01*
X10163Y277328D01*
X10162Y277320D01*
X10171Y277279D01*
X10176Y277244D01*
X10186Y277147D01*
X10196Y277123D01*
X10200Y277097D01*
X10246Y277011D01*
X10286Y276922D01*
X10303Y276903D01*
X10316Y276880D01*
X10386Y276813D01*
X10452Y276741D01*
X10475Y276728D01*
X10494Y276710D01*
X10582Y276669D01*
X10668Y276622D01*
X10693Y276618D01*
X10717Y276607D01*
X10814Y276596D01*
X10910Y276578D01*
X10936Y276582D01*
X10961Y276579D01*
X11057Y276600D01*
X11153Y276614D01*
X11176Y276626D01*
X11202Y276632D01*
X11285Y276682D01*
X11372Y276726D01*
X11391Y276744D01*
X11413Y276758D01*
X11476Y276832D01*
X11544Y276901D01*
X11560Y276930D01*
X11573Y276945D01*
X11585Y276976D01*
X11625Y277048D01*
X12075Y278135D01*
X14625Y280685D01*
X17957Y282065D01*
X36643Y282065D01*
X39975Y280685D01*
X42525Y278135D01*
X43905Y274803D01*
X43905Y271197D01*
X42525Y267865D01*
X39975Y265315D01*
X36643Y263935D01*
X17957Y263935D01*
X14625Y265315D01*
X12075Y267865D01*
X11625Y268952D01*
X11574Y269035D01*
X11528Y269120D01*
X11509Y269138D01*
X11496Y269161D01*
X11421Y269223D01*
X11350Y269290D01*
X11326Y269301D01*
X11306Y269318D01*
X11215Y269352D01*
X11127Y269393D01*
X11101Y269396D01*
X11077Y269406D01*
X10979Y269410D01*
X10883Y269421D01*
X10857Y269415D01*
X10831Y269416D01*
X10737Y269389D01*
X10642Y269368D01*
X10620Y269355D01*
X10595Y269348D01*
X10515Y269292D01*
X10431Y269242D01*
X10414Y269222D01*
X10393Y269207D01*
X10334Y269129D01*
X10271Y269055D01*
X10261Y269031D01*
X10246Y269010D01*
X10216Y268917D01*
X10179Y268827D01*
X10176Y268795D01*
X10170Y268776D01*
X10170Y268743D01*
X10161Y268660D01*
X10161Y232340D01*
X10176Y232244D01*
X10186Y232147D01*
X10196Y232123D01*
X10200Y232097D01*
X10246Y232011D01*
X10286Y231922D01*
X10303Y231903D01*
X10316Y231879D01*
X10386Y231813D01*
X10452Y231741D01*
X10475Y231728D01*
X10494Y231710D01*
X10582Y231669D01*
X10668Y231622D01*
X10693Y231617D01*
X10717Y231606D01*
X10814Y231596D01*
X10910Y231578D01*
X10936Y231582D01*
X10961Y231579D01*
X11056Y231600D01*
X11153Y231614D01*
X11176Y231626D01*
X11202Y231632D01*
X11286Y231682D01*
X11372Y231726D01*
X11390Y231744D01*
X11413Y231758D01*
X11476Y231832D01*
X11544Y231901D01*
X11560Y231930D01*
X11573Y231945D01*
X11585Y231976D01*
X11625Y232048D01*
X12075Y233135D01*
X14625Y235685D01*
X17957Y237065D01*
X36643Y237065D01*
X39975Y235685D01*
X42525Y233135D01*
X43905Y229803D01*
X43905Y226197D01*
X42525Y222865D01*
X39975Y220315D01*
X36643Y218935D01*
X17957Y218935D01*
X14625Y220315D01*
X12075Y222865D01*
X11625Y223952D01*
X11574Y224035D01*
X11528Y224121D01*
X11509Y224138D01*
X11496Y224161D01*
X11421Y224223D01*
X11350Y224290D01*
X11326Y224301D01*
X11306Y224318D01*
X11215Y224353D01*
X11127Y224394D01*
X11101Y224396D01*
X11077Y224406D01*
X10979Y224410D01*
X10883Y224421D01*
X10857Y224415D01*
X10831Y224416D01*
X10737Y224389D01*
X10642Y224368D01*
X10620Y224355D01*
X10595Y224348D01*
X10515Y224292D01*
X10431Y224242D01*
X10414Y224222D01*
X10393Y224207D01*
X10334Y224129D01*
X10271Y224055D01*
X10261Y224031D01*
X10246Y224010D01*
X10216Y223917D01*
X10179Y223827D01*
X10176Y223795D01*
X10170Y223776D01*
X10170Y223743D01*
X10161Y223660D01*
X10161Y155574D01*
X10176Y155478D01*
X10186Y155381D01*
X10196Y155357D01*
X10200Y155331D01*
X10246Y155245D01*
X10286Y155156D01*
X10303Y155137D01*
X10316Y155114D01*
X10386Y155047D01*
X10452Y154975D01*
X10475Y154962D01*
X10494Y154944D01*
X10582Y154903D01*
X10668Y154856D01*
X10693Y154852D01*
X10717Y154841D01*
X10814Y154830D01*
X10910Y154813D01*
X10936Y154817D01*
X10961Y154814D01*
X11057Y154834D01*
X11153Y154849D01*
X11176Y154860D01*
X11202Y154866D01*
X11285Y154916D01*
X11372Y154960D01*
X11391Y154979D01*
X11413Y154992D01*
X11476Y155066D01*
X11544Y155136D01*
X11560Y155164D01*
X11573Y155179D01*
X11585Y155210D01*
X11625Y155283D01*
X12475Y157335D01*
X15025Y159885D01*
X18357Y161265D01*
X37043Y161265D01*
X40375Y159885D01*
X42925Y157335D01*
X44305Y154003D01*
X44305Y150397D01*
X42925Y147065D01*
X40375Y144515D01*
X37043Y143135D01*
X18357Y143135D01*
X15025Y144515D01*
X12475Y147065D01*
X11625Y149117D01*
X11574Y149200D01*
X11528Y149286D01*
X11510Y149304D01*
X11496Y149326D01*
X11420Y149389D01*
X11350Y149456D01*
X11326Y149467D01*
X11306Y149483D01*
X11215Y149518D01*
X11127Y149559D01*
X11101Y149562D01*
X11077Y149571D01*
X10979Y149576D01*
X10883Y149586D01*
X10857Y149581D01*
X10831Y149582D01*
X10737Y149555D01*
X10642Y149534D01*
X10620Y149521D01*
X10595Y149513D01*
X10515Y149458D01*
X10431Y149408D01*
X10414Y149388D01*
X10393Y149373D01*
X10334Y149295D01*
X10271Y149221D01*
X10261Y149197D01*
X10246Y149176D01*
X10216Y149083D01*
X10179Y148993D01*
X10176Y148960D01*
X10170Y148942D01*
X10170Y148909D01*
X10161Y148826D01*
X10161Y110574D01*
X10176Y110478D01*
X10186Y110381D01*
X10196Y110357D01*
X10200Y110331D01*
X10246Y110245D01*
X10286Y110156D01*
X10303Y110137D01*
X10316Y110114D01*
X10386Y110047D01*
X10452Y109975D01*
X10475Y109962D01*
X10494Y109944D01*
X10582Y109903D01*
X10668Y109856D01*
X10693Y109852D01*
X10717Y109841D01*
X10814Y109830D01*
X10910Y109813D01*
X10936Y109817D01*
X10961Y109814D01*
X11057Y109834D01*
X11153Y109849D01*
X11176Y109860D01*
X11202Y109866D01*
X11285Y109916D01*
X11372Y109960D01*
X11391Y109979D01*
X11413Y109992D01*
X11476Y110066D01*
X11544Y110136D01*
X11560Y110164D01*
X11573Y110179D01*
X11585Y110210D01*
X11625Y110283D01*
X12475Y112335D01*
X15025Y114885D01*
X18357Y116265D01*
X37043Y116265D01*
X40375Y114885D01*
X42925Y112335D01*
X44305Y109003D01*
X44305Y105397D01*
X42925Y102065D01*
X40375Y99515D01*
X37043Y98135D01*
X18357Y98135D01*
X15025Y99515D01*
X12475Y102065D01*
X11625Y104117D01*
X11574Y104200D01*
X11528Y104286D01*
X11510Y104304D01*
X11496Y104326D01*
X11420Y104389D01*
X11350Y104456D01*
X11326Y104467D01*
X11306Y104483D01*
X11215Y104518D01*
X11127Y104559D01*
X11101Y104562D01*
X11077Y104571D01*
X10979Y104576D01*
X10883Y104586D01*
X10857Y104581D01*
X10831Y104582D01*
X10737Y104555D01*
X10642Y104534D01*
X10620Y104521D01*
X10595Y104513D01*
X10515Y104458D01*
X10431Y104408D01*
X10414Y104388D01*
X10393Y104373D01*
X10334Y104295D01*
X10271Y104221D01*
X10261Y104197D01*
X10246Y104176D01*
X10216Y104083D01*
X10179Y103993D01*
X10176Y103960D01*
X10170Y103942D01*
X10170Y103909D01*
X10161Y103826D01*
X10161Y44826D01*
X10165Y44802D01*
X10162Y44778D01*
X10184Y44681D01*
X10200Y44583D01*
X10212Y44562D01*
X10217Y44538D01*
X10269Y44453D01*
X10316Y44365D01*
X10333Y44349D01*
X10346Y44328D01*
X10422Y44265D01*
X10494Y44196D01*
X10516Y44186D01*
X10534Y44171D01*
X10627Y44134D01*
X10717Y44092D01*
X10741Y44090D01*
X10763Y44081D01*
X10863Y44076D01*
X10961Y44065D01*
X10985Y44071D01*
X11009Y44069D01*
X11105Y44097D01*
X11202Y44118D01*
X11222Y44130D01*
X11246Y44137D01*
X11328Y44193D01*
X11413Y44244D01*
X11429Y44262D01*
X11448Y44276D01*
X11508Y44355D01*
X11573Y44431D01*
X11582Y44453D01*
X11596Y44472D01*
X11657Y44629D01*
X12690Y48484D01*
X16266Y54677D01*
X21323Y59734D01*
X27516Y63310D01*
X34424Y65161D01*
X41576Y65161D01*
X48484Y63310D01*
X54677Y59734D01*
X59734Y54677D01*
X63310Y48484D01*
X65161Y41576D01*
X65161Y34424D01*
X63310Y27516D01*
X59734Y21323D01*
X54677Y16266D01*
X48484Y12690D01*
X44629Y11657D01*
X44607Y11647D01*
X44583Y11643D01*
X44495Y11597D01*
X44404Y11556D01*
X44387Y11540D01*
X44365Y11528D01*
X44297Y11456D01*
X44224Y11389D01*
X44213Y11368D01*
X44196Y11350D01*
X44154Y11260D01*
X44107Y11173D01*
X44103Y11149D01*
X44092Y11127D01*
X44082Y11028D01*
X44064Y10930D01*
X44068Y10906D01*
X44065Y10883D01*
X44086Y10786D01*
X44101Y10687D01*
X44113Y10666D01*
X44118Y10642D01*
X44169Y10557D01*
X44214Y10468D01*
X44231Y10452D01*
X44244Y10431D01*
X44319Y10366D01*
X44391Y10297D01*
X44412Y10287D01*
X44431Y10271D01*
X44523Y10234D01*
X44613Y10191D01*
X44636Y10188D01*
X44659Y10179D01*
X44826Y10161D01*
X952442Y10161D01*
X952466Y10165D01*
G37*
%LPC*%
G36*
X292033Y25975D02*
X292033Y25975D01*
X289452Y28556D01*
X223373Y94635D01*
X223278Y94703D01*
X223184Y94773D01*
X223178Y94775D01*
X223173Y94779D01*
X223062Y94813D01*
X222950Y94850D01*
X222944Y94849D01*
X222938Y94851D01*
X222821Y94848D01*
X222704Y94847D01*
X222697Y94845D01*
X222692Y94845D01*
X222675Y94839D01*
X222543Y94800D01*
X221903Y94535D01*
X218297Y94535D01*
X214965Y95915D01*
X212415Y98465D01*
X211035Y101797D01*
X211035Y103360D01*
X211024Y103430D01*
X211022Y103502D01*
X211004Y103551D01*
X210996Y103602D01*
X210962Y103666D01*
X210937Y103733D01*
X210905Y103774D01*
X210880Y103820D01*
X210828Y103869D01*
X210784Y103925D01*
X210740Y103953D01*
X210702Y103989D01*
X210637Y104019D01*
X210577Y104058D01*
X210526Y104071D01*
X210479Y104093D01*
X210408Y104101D01*
X210338Y104118D01*
X210286Y104114D01*
X210235Y104120D01*
X210164Y104105D01*
X210093Y104099D01*
X210045Y104079D01*
X209994Y104068D01*
X209933Y104031D01*
X209867Y104003D01*
X209811Y103958D01*
X209783Y103941D01*
X209768Y103924D01*
X209736Y103898D01*
X205413Y99575D01*
X203353Y99575D01*
X203239Y99557D01*
X203122Y99539D01*
X203117Y99537D01*
X203110Y99536D01*
X203007Y99481D01*
X202903Y99428D01*
X202899Y99423D01*
X202893Y99420D01*
X202812Y99335D01*
X202731Y99252D01*
X202727Y99246D01*
X202724Y99242D01*
X202716Y99225D01*
X202650Y99105D01*
X202385Y98465D01*
X199835Y95915D01*
X196503Y94535D01*
X192897Y94535D01*
X189565Y95915D01*
X187015Y98465D01*
X185635Y101797D01*
X185635Y105403D01*
X187015Y108735D01*
X189565Y111285D01*
X192897Y112665D01*
X196503Y112665D01*
X199835Y111285D01*
X202249Y108871D01*
X202265Y108859D01*
X202277Y108844D01*
X202364Y108788D01*
X202448Y108727D01*
X202467Y108722D01*
X202484Y108711D01*
X202585Y108685D01*
X202683Y108655D01*
X202703Y108656D01*
X202723Y108651D01*
X202826Y108659D01*
X202929Y108661D01*
X202948Y108668D01*
X202968Y108670D01*
X203063Y108710D01*
X203160Y108746D01*
X203176Y108758D01*
X203194Y108766D01*
X203325Y108871D01*
X211062Y116608D01*
X213643Y119189D01*
X216272Y119189D01*
X216368Y119204D01*
X216465Y119214D01*
X216489Y119224D01*
X216515Y119228D01*
X216601Y119274D01*
X216690Y119314D01*
X216709Y119331D01*
X216732Y119344D01*
X216799Y119414D01*
X216871Y119480D01*
X216884Y119503D01*
X216902Y119522D01*
X216943Y119610D01*
X216990Y119696D01*
X216994Y119721D01*
X217005Y119745D01*
X217016Y119842D01*
X217033Y119938D01*
X217030Y119964D01*
X217032Y119989D01*
X217012Y120085D01*
X216998Y120181D01*
X216986Y120204D01*
X216980Y120230D01*
X216930Y120313D01*
X216886Y120400D01*
X216867Y120419D01*
X216854Y120441D01*
X216780Y120504D01*
X216710Y120572D01*
X216682Y120588D01*
X216667Y120601D01*
X216636Y120613D01*
X216563Y120653D01*
X214965Y121315D01*
X212415Y123865D01*
X211035Y127197D01*
X211035Y130803D01*
X212415Y134135D01*
X214965Y136685D01*
X218297Y138065D01*
X221903Y138065D01*
X225235Y136685D01*
X227785Y134135D01*
X229165Y130803D01*
X229165Y127197D01*
X227785Y123865D01*
X225235Y121315D01*
X223637Y120653D01*
X223553Y120602D01*
X223468Y120556D01*
X223450Y120538D01*
X223427Y120524D01*
X223365Y120448D01*
X223298Y120378D01*
X223287Y120354D01*
X223271Y120334D01*
X223236Y120243D01*
X223195Y120155D01*
X223192Y120129D01*
X223182Y120105D01*
X223178Y120007D01*
X223168Y119911D01*
X223173Y119885D01*
X223172Y119859D01*
X223199Y119765D01*
X223220Y119670D01*
X223233Y119648D01*
X223241Y119623D01*
X223296Y119543D01*
X223346Y119459D01*
X223366Y119442D01*
X223381Y119421D01*
X223459Y119362D01*
X223533Y119299D01*
X223557Y119289D01*
X223578Y119274D01*
X223671Y119244D01*
X223761Y119207D01*
X223794Y119204D01*
X223812Y119198D01*
X223845Y119198D01*
X223928Y119189D01*
X276503Y119189D01*
X321444Y74248D01*
X321518Y74195D01*
X321588Y74135D01*
X321618Y74123D01*
X321644Y74104D01*
X321731Y74077D01*
X321816Y74043D01*
X321857Y74039D01*
X321879Y74032D01*
X321911Y74033D01*
X321982Y74025D01*
X568018Y74025D01*
X568108Y74039D01*
X568199Y74047D01*
X568228Y74059D01*
X568260Y74064D01*
X568341Y74107D01*
X568425Y74143D01*
X568457Y74169D01*
X568478Y74180D01*
X568500Y74203D01*
X568556Y74248D01*
X615752Y121444D01*
X618144Y123836D01*
X618186Y123894D01*
X618235Y123946D01*
X618257Y123993D01*
X618287Y124035D01*
X618309Y124104D01*
X618339Y124169D01*
X618344Y124221D01*
X618360Y124271D01*
X618358Y124342D01*
X618366Y124413D01*
X618355Y124464D01*
X618353Y124516D01*
X618329Y124584D01*
X618314Y124654D01*
X618287Y124699D01*
X618269Y124747D01*
X618224Y124803D01*
X618187Y124865D01*
X618148Y124899D01*
X618115Y124939D01*
X618055Y124978D01*
X618001Y125025D01*
X617952Y125044D01*
X617908Y125072D01*
X617839Y125090D01*
X617772Y125117D01*
X617701Y125125D01*
X617670Y125133D01*
X617647Y125131D01*
X617606Y125135D01*
X616496Y125135D01*
X613532Y126363D01*
X611263Y128632D01*
X610035Y131596D01*
X610035Y134804D01*
X611263Y137768D01*
X613532Y140037D01*
X614676Y140511D01*
X614759Y140562D01*
X614844Y140608D01*
X614862Y140626D01*
X614885Y140640D01*
X614947Y140716D01*
X615014Y140786D01*
X615025Y140810D01*
X615041Y140830D01*
X615076Y140921D01*
X615117Y141009D01*
X615120Y141035D01*
X615130Y141059D01*
X615134Y141157D01*
X615144Y141253D01*
X615139Y141279D01*
X615140Y141305D01*
X615113Y141399D01*
X615092Y141494D01*
X615079Y141516D01*
X615071Y141541D01*
X615016Y141621D01*
X614966Y141705D01*
X614946Y141722D01*
X614931Y141743D01*
X614853Y141802D01*
X614779Y141865D01*
X614755Y141875D01*
X614734Y141890D01*
X614641Y141920D01*
X614551Y141957D01*
X614518Y141960D01*
X614500Y141966D01*
X614467Y141966D01*
X614384Y141975D01*
X596416Y141975D01*
X596320Y141960D01*
X596223Y141950D01*
X596199Y141940D01*
X596173Y141936D01*
X596087Y141890D01*
X595998Y141850D01*
X595979Y141833D01*
X595956Y141820D01*
X595889Y141750D01*
X595817Y141684D01*
X595804Y141661D01*
X595786Y141642D01*
X595745Y141554D01*
X595698Y141468D01*
X595694Y141443D01*
X595683Y141419D01*
X595672Y141322D01*
X595655Y141226D01*
X595658Y141200D01*
X595656Y141175D01*
X595676Y141079D01*
X595690Y140983D01*
X595702Y140960D01*
X595708Y140934D01*
X595758Y140851D01*
X595802Y140764D01*
X595821Y140745D01*
X595834Y140723D01*
X595908Y140660D01*
X595977Y140592D01*
X596006Y140576D01*
X596021Y140563D01*
X596052Y140551D01*
X596124Y140511D01*
X597268Y140037D01*
X599537Y137768D01*
X600765Y134804D01*
X600765Y131596D01*
X599537Y128632D01*
X597268Y126363D01*
X594304Y125135D01*
X591096Y125135D01*
X588132Y126363D01*
X585863Y128632D01*
X584635Y131596D01*
X584635Y134804D01*
X585863Y137768D01*
X588132Y140037D01*
X589276Y140511D01*
X589359Y140562D01*
X589444Y140608D01*
X589462Y140626D01*
X589485Y140640D01*
X589547Y140716D01*
X589614Y140786D01*
X589625Y140810D01*
X589641Y140830D01*
X589676Y140921D01*
X589717Y141009D01*
X589720Y141035D01*
X589730Y141059D01*
X589734Y141157D01*
X589744Y141253D01*
X589739Y141279D01*
X589740Y141305D01*
X589713Y141399D01*
X589692Y141494D01*
X589679Y141516D01*
X589671Y141541D01*
X589616Y141621D01*
X589566Y141705D01*
X589546Y141722D01*
X589531Y141743D01*
X589453Y141802D01*
X589379Y141865D01*
X589355Y141875D01*
X589334Y141890D01*
X589241Y141920D01*
X589151Y141957D01*
X589118Y141960D01*
X589100Y141966D01*
X589067Y141966D01*
X588984Y141975D01*
X543080Y141975D01*
X542984Y141960D01*
X542887Y141950D01*
X542863Y141940D01*
X542837Y141936D01*
X542752Y141890D01*
X542662Y141850D01*
X542643Y141833D01*
X542620Y141820D01*
X542553Y141750D01*
X542481Y141684D01*
X542469Y141661D01*
X542451Y141642D01*
X542410Y141554D01*
X542363Y141468D01*
X542358Y141443D01*
X542347Y141419D01*
X542336Y141322D01*
X542319Y141226D01*
X542323Y141200D01*
X542320Y141175D01*
X542341Y141079D01*
X542355Y140983D01*
X542367Y140960D01*
X542372Y140934D01*
X542422Y140851D01*
X542466Y140764D01*
X542485Y140745D01*
X542498Y140723D01*
X542572Y140660D01*
X542642Y140592D01*
X542671Y140576D01*
X542685Y140563D01*
X542716Y140551D01*
X542789Y140511D01*
X545660Y139321D01*
X551331Y133650D01*
X554401Y126240D01*
X554401Y118220D01*
X551331Y110810D01*
X545660Y105139D01*
X538250Y102069D01*
X530230Y102069D01*
X522820Y105139D01*
X517149Y110810D01*
X514079Y118220D01*
X514079Y126240D01*
X517149Y133650D01*
X522820Y139321D01*
X525691Y140511D01*
X525774Y140562D01*
X525860Y140608D01*
X525878Y140626D01*
X525900Y140640D01*
X525962Y140716D01*
X526029Y140786D01*
X526040Y140810D01*
X526057Y140830D01*
X526092Y140921D01*
X526133Y141009D01*
X526136Y141035D01*
X526145Y141059D01*
X526149Y141157D01*
X526160Y141253D01*
X526154Y141279D01*
X526156Y141305D01*
X526128Y141399D01*
X526108Y141494D01*
X526094Y141516D01*
X526087Y141541D01*
X526032Y141621D01*
X525982Y141705D01*
X525962Y141722D01*
X525947Y141743D01*
X525869Y141802D01*
X525795Y141865D01*
X525770Y141875D01*
X525749Y141890D01*
X525657Y141920D01*
X525566Y141957D01*
X525534Y141960D01*
X525516Y141966D01*
X525482Y141966D01*
X525400Y141975D01*
X334800Y141975D01*
X334704Y141960D01*
X334607Y141950D01*
X334583Y141940D01*
X334557Y141936D01*
X334472Y141890D01*
X334382Y141850D01*
X334363Y141833D01*
X334340Y141820D01*
X334273Y141750D01*
X334201Y141684D01*
X334189Y141661D01*
X334171Y141642D01*
X334130Y141554D01*
X334083Y141468D01*
X334078Y141443D01*
X334067Y141419D01*
X334056Y141322D01*
X334039Y141226D01*
X334043Y141200D01*
X334040Y141175D01*
X334061Y141079D01*
X334075Y140983D01*
X334087Y140960D01*
X334092Y140934D01*
X334142Y140851D01*
X334186Y140764D01*
X334205Y140745D01*
X334218Y140723D01*
X334292Y140660D01*
X334362Y140592D01*
X334391Y140576D01*
X334405Y140563D01*
X334436Y140551D01*
X334509Y140511D01*
X337380Y139321D01*
X343051Y133650D01*
X346121Y126240D01*
X346121Y118220D01*
X343051Y110810D01*
X337380Y105139D01*
X329970Y102069D01*
X321950Y102069D01*
X314540Y105139D01*
X308869Y110810D01*
X305799Y118220D01*
X305799Y126240D01*
X308869Y133650D01*
X314540Y139321D01*
X317411Y140511D01*
X317494Y140562D01*
X317580Y140608D01*
X317598Y140626D01*
X317620Y140640D01*
X317682Y140716D01*
X317749Y140786D01*
X317760Y140810D01*
X317777Y140830D01*
X317812Y140921D01*
X317853Y141009D01*
X317856Y141035D01*
X317865Y141059D01*
X317869Y141157D01*
X317880Y141253D01*
X317874Y141279D01*
X317876Y141305D01*
X317848Y141399D01*
X317828Y141494D01*
X317814Y141516D01*
X317807Y141541D01*
X317752Y141621D01*
X317702Y141705D01*
X317682Y141722D01*
X317667Y141743D01*
X317589Y141802D01*
X317515Y141865D01*
X317490Y141875D01*
X317469Y141890D01*
X317377Y141920D01*
X317286Y141957D01*
X317254Y141960D01*
X317236Y141966D01*
X317202Y141966D01*
X317120Y141975D01*
X213682Y141975D01*
X213592Y141961D01*
X213501Y141953D01*
X213472Y141941D01*
X213440Y141936D01*
X213359Y141893D01*
X213275Y141857D01*
X213243Y141831D01*
X213222Y141820D01*
X213200Y141797D01*
X213144Y141752D01*
X203665Y132273D01*
X203596Y132178D01*
X203527Y132084D01*
X203525Y132078D01*
X203521Y132073D01*
X203486Y131961D01*
X203450Y131850D01*
X203451Y131844D01*
X203449Y131838D01*
X203452Y131721D01*
X203453Y131604D01*
X203455Y131597D01*
X203455Y131592D01*
X203461Y131575D01*
X203500Y131443D01*
X203765Y130803D01*
X203765Y127197D01*
X202385Y123865D01*
X199835Y121315D01*
X196503Y119935D01*
X192897Y119935D01*
X189565Y121315D01*
X187015Y123865D01*
X185635Y127197D01*
X185635Y130803D01*
X187015Y134135D01*
X189565Y136685D01*
X192897Y138065D01*
X196503Y138065D01*
X197143Y137800D01*
X197257Y137773D01*
X197370Y137744D01*
X197377Y137745D01*
X197383Y137743D01*
X197499Y137754D01*
X197616Y137763D01*
X197621Y137766D01*
X197628Y137767D01*
X197735Y137814D01*
X197842Y137860D01*
X197848Y137864D01*
X197852Y137867D01*
X197866Y137879D01*
X197973Y137965D01*
X207452Y147444D01*
X210033Y150025D01*
X588501Y150025D01*
X588597Y150040D01*
X588694Y150050D01*
X588718Y150060D01*
X588744Y150064D01*
X588830Y150110D01*
X588919Y150150D01*
X588938Y150167D01*
X588962Y150180D01*
X589028Y150250D01*
X589100Y150316D01*
X589113Y150339D01*
X589131Y150358D01*
X589172Y150446D01*
X589219Y150532D01*
X589224Y150557D01*
X589235Y150581D01*
X589245Y150678D01*
X589263Y150774D01*
X589259Y150800D01*
X589262Y150825D01*
X589241Y150920D01*
X589227Y151017D01*
X589215Y151040D01*
X589209Y151066D01*
X589159Y151150D01*
X589115Y151236D01*
X589097Y151254D01*
X589083Y151277D01*
X589009Y151340D01*
X588940Y151408D01*
X588911Y151424D01*
X588896Y151437D01*
X588866Y151449D01*
X588793Y151489D01*
X588132Y151763D01*
X585863Y154032D01*
X584635Y156996D01*
X584635Y160204D01*
X585863Y163168D01*
X587371Y164676D01*
X587412Y164734D01*
X587462Y164786D01*
X587484Y164833D01*
X587514Y164875D01*
X587535Y164944D01*
X587565Y165009D01*
X587571Y165061D01*
X587586Y165111D01*
X587585Y165182D01*
X587592Y165253D01*
X587581Y165304D01*
X587580Y165356D01*
X587555Y165424D01*
X587540Y165494D01*
X587513Y165539D01*
X587496Y165587D01*
X587451Y165643D01*
X587414Y165705D01*
X587374Y165739D01*
X587342Y165779D01*
X587282Y165818D01*
X587227Y165865D01*
X587179Y165884D01*
X587135Y165912D01*
X587066Y165930D01*
X586999Y165957D01*
X586928Y165965D01*
X586896Y165973D01*
X586873Y165971D01*
X586832Y165975D01*
X212282Y165975D01*
X212192Y165961D01*
X212101Y165953D01*
X212072Y165941D01*
X212040Y165936D01*
X211959Y165893D01*
X211875Y165857D01*
X211843Y165831D01*
X211822Y165820D01*
X211800Y165797D01*
X211744Y165752D01*
X178265Y132273D01*
X178197Y132178D01*
X178127Y132084D01*
X178125Y132078D01*
X178121Y132073D01*
X178086Y131961D01*
X178050Y131850D01*
X178051Y131844D01*
X178049Y131838D01*
X178052Y131721D01*
X178053Y131604D01*
X178055Y131597D01*
X178055Y131592D01*
X178061Y131575D01*
X178100Y131443D01*
X178365Y130803D01*
X178365Y127197D01*
X176985Y123865D01*
X174435Y121315D01*
X171103Y119935D01*
X167497Y119935D01*
X164165Y121315D01*
X161615Y123865D01*
X160235Y127197D01*
X160235Y130803D01*
X161615Y134135D01*
X164165Y136685D01*
X167497Y138065D01*
X171103Y138065D01*
X171743Y137800D01*
X171857Y137773D01*
X171970Y137744D01*
X171977Y137745D01*
X171983Y137743D01*
X172099Y137754D01*
X172216Y137763D01*
X172221Y137766D01*
X172228Y137767D01*
X172335Y137814D01*
X172442Y137860D01*
X172448Y137864D01*
X172452Y137867D01*
X172466Y137879D01*
X172573Y137965D01*
X206052Y171444D01*
X208633Y174025D01*
X776205Y174025D01*
X776295Y174039D01*
X776386Y174047D01*
X776415Y174059D01*
X776447Y174064D01*
X776528Y174107D01*
X776612Y174143D01*
X776644Y174169D01*
X776665Y174180D01*
X776687Y174203D01*
X776743Y174248D01*
X777802Y175307D01*
X782198Y175307D01*
X785307Y172198D01*
X785307Y167802D01*
X782198Y164693D01*
X777802Y164693D01*
X776743Y165752D01*
X776669Y165805D01*
X776599Y165865D01*
X776569Y165877D01*
X776543Y165896D01*
X776456Y165923D01*
X776371Y165957D01*
X776330Y165961D01*
X776308Y165968D01*
X776276Y165967D01*
X776205Y165975D01*
X623968Y165975D01*
X623897Y165964D01*
X623825Y165962D01*
X623776Y165944D01*
X623725Y165936D01*
X623662Y165902D01*
X623594Y165877D01*
X623554Y165845D01*
X623508Y165820D01*
X623458Y165768D01*
X623402Y165724D01*
X623374Y165680D01*
X623338Y165642D01*
X623308Y165577D01*
X623269Y165517D01*
X623257Y165466D01*
X623235Y165419D01*
X623227Y165348D01*
X623209Y165278D01*
X623213Y165226D01*
X623208Y165175D01*
X623223Y165104D01*
X623228Y165033D01*
X623249Y164985D01*
X623260Y164934D01*
X623297Y164873D01*
X623325Y164807D01*
X623369Y164751D01*
X623386Y164723D01*
X623404Y164708D01*
X623429Y164676D01*
X624937Y163168D01*
X626165Y160204D01*
X626165Y156996D01*
X624937Y154032D01*
X622668Y151763D01*
X622007Y151489D01*
X621924Y151438D01*
X621839Y151392D01*
X621821Y151374D01*
X621798Y151360D01*
X621736Y151284D01*
X621669Y151214D01*
X621658Y151190D01*
X621641Y151170D01*
X621607Y151079D01*
X621566Y150991D01*
X621563Y150965D01*
X621553Y150941D01*
X621549Y150843D01*
X621538Y150747D01*
X621544Y150721D01*
X621543Y150695D01*
X621570Y150601D01*
X621591Y150506D01*
X621604Y150484D01*
X621611Y150459D01*
X621667Y150379D01*
X621717Y150295D01*
X621737Y150278D01*
X621752Y150257D01*
X621830Y150198D01*
X621904Y150135D01*
X621928Y150125D01*
X621949Y150110D01*
X622042Y150080D01*
X622132Y150043D01*
X622164Y150040D01*
X622183Y150034D01*
X622216Y150034D01*
X622299Y150025D01*
X853205Y150025D01*
X853295Y150039D01*
X853386Y150047D01*
X853415Y150059D01*
X853447Y150064D01*
X853528Y150107D01*
X853612Y150143D01*
X853644Y150169D01*
X853665Y150180D01*
X853687Y150203D01*
X853743Y150248D01*
X854802Y151307D01*
X859198Y151307D01*
X862307Y148198D01*
X862307Y143802D01*
X859198Y140693D01*
X854802Y140693D01*
X853743Y141752D01*
X853669Y141805D01*
X853599Y141865D01*
X853569Y141877D01*
X853543Y141896D01*
X853456Y141923D01*
X853371Y141957D01*
X853330Y141961D01*
X853308Y141968D01*
X853276Y141967D01*
X853205Y141975D01*
X621816Y141975D01*
X621720Y141960D01*
X621623Y141950D01*
X621599Y141940D01*
X621573Y141936D01*
X621487Y141890D01*
X621398Y141850D01*
X621379Y141833D01*
X621356Y141820D01*
X621289Y141750D01*
X621217Y141684D01*
X621204Y141661D01*
X621186Y141642D01*
X621145Y141554D01*
X621098Y141468D01*
X621094Y141443D01*
X621083Y141419D01*
X621072Y141322D01*
X621055Y141226D01*
X621058Y141200D01*
X621056Y141175D01*
X621076Y141079D01*
X621090Y140983D01*
X621102Y140960D01*
X621108Y140934D01*
X621158Y140851D01*
X621202Y140764D01*
X621221Y140745D01*
X621234Y140723D01*
X621308Y140660D01*
X621378Y140592D01*
X621406Y140576D01*
X621421Y140563D01*
X621452Y140551D01*
X621524Y140511D01*
X622668Y140037D01*
X624937Y137768D01*
X626165Y134804D01*
X626165Y131596D01*
X624937Y128632D01*
X622668Y126363D01*
X620559Y125489D01*
X620476Y125438D01*
X620390Y125392D01*
X620372Y125373D01*
X620350Y125360D01*
X620288Y125285D01*
X620221Y125214D01*
X620210Y125190D01*
X620193Y125170D01*
X620158Y125079D01*
X620117Y124991D01*
X620114Y124965D01*
X620105Y124941D01*
X620101Y124843D01*
X620090Y124747D01*
X620095Y124721D01*
X620094Y124695D01*
X620121Y124601D01*
X620142Y124506D01*
X620156Y124484D01*
X620163Y124459D01*
X620218Y124379D01*
X620268Y124295D01*
X620288Y124278D01*
X620303Y124257D01*
X620381Y124198D01*
X620455Y124135D01*
X620480Y124125D01*
X620501Y124110D01*
X620593Y124080D01*
X620683Y124043D01*
X620716Y124040D01*
X620734Y124034D01*
X620767Y124034D01*
X620850Y124025D01*
X848018Y124025D01*
X848108Y124039D01*
X848199Y124047D01*
X848228Y124059D01*
X848260Y124064D01*
X848341Y124107D01*
X848425Y124143D01*
X848457Y124169D01*
X848478Y124180D01*
X848500Y124203D01*
X848556Y124248D01*
X865752Y141444D01*
X865805Y141518D01*
X865865Y141588D01*
X865877Y141618D01*
X865896Y141644D01*
X865923Y141731D01*
X865957Y141816D01*
X865961Y141857D01*
X865968Y141879D01*
X865967Y141911D01*
X865975Y141982D01*
X865975Y156205D01*
X865961Y156295D01*
X865953Y156386D01*
X865941Y156415D01*
X865936Y156447D01*
X865893Y156528D01*
X865857Y156612D01*
X865831Y156644D01*
X865820Y156665D01*
X865797Y156687D01*
X865752Y156743D01*
X864693Y157802D01*
X864693Y162198D01*
X867802Y165307D01*
X872198Y165307D01*
X875307Y162198D01*
X875307Y157802D01*
X874248Y156743D01*
X874195Y156669D01*
X874135Y156599D01*
X874123Y156569D01*
X874104Y156543D01*
X874077Y156456D01*
X874043Y156371D01*
X874039Y156330D01*
X874032Y156308D01*
X874033Y156276D01*
X874025Y156205D01*
X874025Y138333D01*
X851667Y115975D01*
X621982Y115975D01*
X621892Y115961D01*
X621801Y115953D01*
X621772Y115941D01*
X621740Y115936D01*
X621659Y115893D01*
X621575Y115857D01*
X621543Y115831D01*
X621522Y115820D01*
X621521Y115820D01*
X621500Y115797D01*
X621444Y115752D01*
X603996Y98304D01*
X603954Y98246D01*
X603905Y98194D01*
X603883Y98147D01*
X603853Y98105D01*
X603831Y98036D01*
X603801Y97971D01*
X603795Y97919D01*
X603780Y97869D01*
X603782Y97798D01*
X603774Y97727D01*
X603785Y97676D01*
X603787Y97624D01*
X603811Y97556D01*
X603826Y97486D01*
X603853Y97441D01*
X603871Y97393D01*
X603916Y97337D01*
X603953Y97275D01*
X603992Y97241D01*
X604025Y97201D01*
X604085Y97162D01*
X604139Y97115D01*
X604188Y97096D01*
X604232Y97068D01*
X604301Y97050D01*
X604368Y97023D01*
X604439Y97015D01*
X604470Y97007D01*
X604493Y97009D01*
X604534Y97005D01*
X607004Y97005D01*
X609968Y95777D01*
X612237Y93508D01*
X613465Y90544D01*
X613465Y74256D01*
X612237Y71292D01*
X609968Y69023D01*
X607004Y67795D01*
X603796Y67795D01*
X600832Y69023D01*
X598563Y71292D01*
X597335Y74256D01*
X597335Y89806D01*
X597324Y89876D01*
X597322Y89948D01*
X597304Y89997D01*
X597296Y90048D01*
X597262Y90112D01*
X597237Y90179D01*
X597205Y90220D01*
X597180Y90266D01*
X597128Y90315D01*
X597084Y90371D01*
X597040Y90399D01*
X597002Y90435D01*
X596937Y90465D01*
X596877Y90504D01*
X596826Y90517D01*
X596779Y90539D01*
X596708Y90547D01*
X596638Y90564D01*
X596586Y90560D01*
X596535Y90566D01*
X596464Y90551D01*
X596393Y90545D01*
X596345Y90525D01*
X596294Y90514D01*
X596233Y90477D01*
X596167Y90449D01*
X596111Y90404D01*
X596083Y90387D01*
X596068Y90370D01*
X596036Y90344D01*
X574248Y68556D01*
X571667Y65975D01*
X318333Y65975D01*
X273392Y110916D01*
X273318Y110969D01*
X273248Y111029D01*
X273218Y111041D01*
X273192Y111060D01*
X273105Y111087D01*
X273020Y111121D01*
X272979Y111125D01*
X272957Y111132D01*
X272925Y111131D01*
X272854Y111139D01*
X227218Y111139D01*
X227147Y111128D01*
X227076Y111126D01*
X227027Y111108D01*
X226975Y111100D01*
X226912Y111066D01*
X226845Y111041D01*
X226804Y111009D01*
X226758Y110984D01*
X226709Y110932D01*
X226653Y110888D01*
X226624Y110844D01*
X226589Y110806D01*
X226558Y110741D01*
X226520Y110681D01*
X226507Y110630D01*
X226485Y110583D01*
X226477Y110512D01*
X226459Y110442D01*
X226464Y110390D01*
X226458Y110339D01*
X226473Y110268D01*
X226479Y110197D01*
X226499Y110149D01*
X226510Y110098D01*
X226547Y110037D01*
X226575Y109971D01*
X226620Y109915D01*
X226636Y109887D01*
X226654Y109872D01*
X226680Y109840D01*
X227785Y108735D01*
X229165Y105403D01*
X229165Y101797D01*
X228900Y101157D01*
X228873Y101043D01*
X228844Y100930D01*
X228845Y100923D01*
X228843Y100917D01*
X228854Y100800D01*
X228863Y100684D01*
X228866Y100679D01*
X228867Y100672D01*
X228914Y100565D01*
X228960Y100458D01*
X228964Y100452D01*
X228967Y100448D01*
X228979Y100434D01*
X229065Y100327D01*
X295144Y34248D01*
X295218Y34195D01*
X295288Y34135D01*
X295318Y34123D01*
X295344Y34104D01*
X295431Y34077D01*
X295516Y34043D01*
X295557Y34039D01*
X295579Y34032D01*
X295611Y34033D01*
X295682Y34025D01*
X906618Y34025D01*
X906708Y34039D01*
X906799Y34047D01*
X906828Y34059D01*
X906860Y34064D01*
X906941Y34107D01*
X907025Y34143D01*
X907057Y34169D01*
X907078Y34180D01*
X907100Y34203D01*
X907156Y34248D01*
X940472Y67564D01*
X940528Y67643D01*
X940591Y67718D01*
X940600Y67742D01*
X940615Y67763D01*
X940644Y67856D01*
X940679Y67947D01*
X940680Y67973D01*
X940688Y67998D01*
X940685Y68096D01*
X940689Y68193D01*
X940682Y68218D01*
X940681Y68244D01*
X940648Y68336D01*
X940621Y68429D01*
X940606Y68451D01*
X940597Y68475D01*
X940536Y68551D01*
X940480Y68631D01*
X940459Y68647D01*
X940443Y68667D01*
X940361Y68720D01*
X940283Y68778D01*
X940258Y68786D01*
X940236Y68800D01*
X940142Y68824D01*
X940049Y68854D01*
X940023Y68854D01*
X939998Y68860D01*
X939901Y68853D01*
X939803Y68852D01*
X939772Y68843D01*
X939752Y68841D01*
X939722Y68828D01*
X939642Y68805D01*
X937204Y67795D01*
X933996Y67795D01*
X931032Y69023D01*
X928763Y71292D01*
X927535Y74256D01*
X927535Y90544D01*
X928763Y93508D01*
X931032Y95777D01*
X933996Y97005D01*
X937204Y97005D01*
X940168Y95777D01*
X942437Y93508D01*
X943665Y90544D01*
X943665Y74256D01*
X942655Y71818D01*
X942633Y71723D01*
X942604Y71630D01*
X942605Y71604D01*
X942599Y71578D01*
X942608Y71482D01*
X942610Y71384D01*
X942619Y71360D01*
X942622Y71334D01*
X942661Y71245D01*
X942695Y71153D01*
X942711Y71133D01*
X942722Y71109D01*
X942788Y71037D01*
X942849Y70961D01*
X942871Y70947D01*
X942888Y70928D01*
X942974Y70881D01*
X943055Y70828D01*
X943081Y70822D01*
X943104Y70809D01*
X943200Y70792D01*
X943294Y70768D01*
X943320Y70770D01*
X943346Y70765D01*
X943442Y70780D01*
X943539Y70787D01*
X943563Y70797D01*
X943589Y70801D01*
X943676Y70845D01*
X943766Y70883D01*
X943791Y70904D01*
X943808Y70913D01*
X943832Y70936D01*
X943896Y70988D01*
X952712Y79804D01*
X952765Y79878D01*
X952825Y79948D01*
X952837Y79978D01*
X952856Y80004D01*
X952883Y80091D01*
X952917Y80176D01*
X952921Y80217D01*
X952928Y80239D01*
X952927Y80271D01*
X952935Y80342D01*
X952935Y90544D01*
X954163Y93508D01*
X956432Y95777D01*
X959396Y97005D01*
X962604Y97005D01*
X965568Y95777D01*
X967837Y93508D01*
X969065Y90544D01*
X969065Y74256D01*
X967837Y71292D01*
X965568Y69023D01*
X962604Y67795D01*
X959396Y67795D01*
X956432Y69023D01*
X955412Y70043D01*
X955395Y70055D01*
X955383Y70070D01*
X955296Y70126D01*
X955212Y70187D01*
X955193Y70193D01*
X955176Y70203D01*
X955076Y70229D01*
X954977Y70259D01*
X954957Y70259D01*
X954938Y70263D01*
X954835Y70255D01*
X954731Y70253D01*
X954712Y70246D01*
X954692Y70244D01*
X954597Y70204D01*
X954500Y70168D01*
X954484Y70156D01*
X954466Y70148D01*
X954335Y70043D01*
X912848Y28556D01*
X910267Y25975D01*
X292033Y25975D01*
G37*
%LPD*%
%LPC*%
G36*
X125633Y25975D02*
X125633Y25975D01*
X109960Y41648D01*
X109886Y41701D01*
X109816Y41761D01*
X109786Y41773D01*
X109760Y41792D01*
X109673Y41819D01*
X109588Y41853D01*
X109547Y41857D01*
X109525Y41864D01*
X109493Y41863D01*
X109422Y41871D01*
X103933Y41871D01*
X99171Y46633D01*
X99171Y53367D01*
X103052Y57248D01*
X103105Y57322D01*
X103165Y57391D01*
X103177Y57422D01*
X103196Y57448D01*
X103223Y57535D01*
X103257Y57620D01*
X103261Y57661D01*
X103268Y57683D01*
X103267Y57715D01*
X103275Y57786D01*
X103275Y94067D01*
X105856Y96648D01*
X106959Y97751D01*
X106996Y97803D01*
X107041Y97848D01*
X107068Y97902D01*
X107103Y97951D01*
X107121Y98012D01*
X107150Y98069D01*
X107157Y98128D01*
X107175Y98186D01*
X107173Y98250D01*
X107182Y98313D01*
X107170Y98372D01*
X107169Y98432D01*
X107147Y98492D01*
X107134Y98554D01*
X107105Y98606D01*
X107084Y98663D01*
X107044Y98713D01*
X107013Y98768D01*
X106968Y98808D01*
X106931Y98855D01*
X106877Y98889D01*
X106829Y98932D01*
X106774Y98955D01*
X106724Y98988D01*
X106662Y99003D01*
X106603Y99028D01*
X106543Y99033D01*
X106485Y99048D01*
X106421Y99043D01*
X106358Y99048D01*
X106300Y99033D01*
X106240Y99029D01*
X106181Y99004D01*
X106119Y98988D01*
X106044Y98945D01*
X106014Y98932D01*
X105994Y98917D01*
X105973Y98905D01*
X105523Y98578D01*
X104110Y97858D01*
X102601Y97367D01*
X101033Y97119D01*
X94223Y97119D01*
X94223Y105677D01*
X110205Y105677D01*
X110073Y104839D01*
X109582Y103330D01*
X108862Y101917D01*
X108535Y101467D01*
X108506Y101410D01*
X108469Y101358D01*
X108451Y101300D01*
X108424Y101247D01*
X108415Y101184D01*
X108397Y101123D01*
X108398Y101063D01*
X108390Y101003D01*
X108401Y100941D01*
X108403Y100877D01*
X108424Y100820D01*
X108434Y100761D01*
X108465Y100706D01*
X108487Y100646D01*
X108525Y100599D01*
X108554Y100547D01*
X108601Y100504D01*
X108641Y100454D01*
X108692Y100421D01*
X108736Y100381D01*
X108794Y100355D01*
X108848Y100321D01*
X108906Y100306D01*
X108961Y100282D01*
X109025Y100276D01*
X109087Y100261D01*
X109146Y100265D01*
X109206Y100260D01*
X109268Y100275D01*
X109332Y100280D01*
X109387Y100303D01*
X109445Y100317D01*
X109499Y100351D01*
X109558Y100376D01*
X109626Y100430D01*
X109654Y100448D01*
X109670Y100466D01*
X109689Y100481D01*
X134935Y125727D01*
X135003Y125822D01*
X135073Y125916D01*
X135075Y125922D01*
X135079Y125927D01*
X135113Y126038D01*
X135150Y126150D01*
X135149Y126156D01*
X135151Y126162D01*
X135148Y126279D01*
X135147Y126396D01*
X135145Y126403D01*
X135145Y126408D01*
X135139Y126425D01*
X135100Y126557D01*
X134835Y127197D01*
X134835Y130803D01*
X136215Y134135D01*
X138765Y136685D01*
X142097Y138065D01*
X145703Y138065D01*
X146343Y137800D01*
X146457Y137773D01*
X146570Y137744D01*
X146577Y137745D01*
X146583Y137743D01*
X146699Y137754D01*
X146815Y137763D01*
X146821Y137766D01*
X146827Y137767D01*
X146935Y137815D01*
X147042Y137860D01*
X147048Y137864D01*
X147052Y137866D01*
X147066Y137879D01*
X147173Y137965D01*
X213233Y204025D01*
X356633Y204025D01*
X356703Y204036D01*
X356775Y204038D01*
X356824Y204056D01*
X356875Y204064D01*
X356939Y204098D01*
X357006Y204123D01*
X357047Y204155D01*
X357093Y204180D01*
X357142Y204231D01*
X357198Y204276D01*
X357226Y204320D01*
X357262Y204358D01*
X357292Y204423D01*
X357331Y204483D01*
X357344Y204534D01*
X357366Y204581D01*
X357374Y204652D01*
X357391Y204722D01*
X357387Y204774D01*
X357393Y204825D01*
X357378Y204896D01*
X357372Y204967D01*
X357352Y205015D01*
X357341Y205066D01*
X357304Y205127D01*
X357276Y205193D01*
X357231Y205249D01*
X357214Y205277D01*
X357197Y205292D01*
X357171Y205324D01*
X356743Y205752D01*
X356669Y205806D01*
X356599Y205865D01*
X356569Y205877D01*
X356543Y205896D01*
X356456Y205923D01*
X356371Y205957D01*
X356330Y205961D01*
X356308Y205968D01*
X356276Y205967D01*
X356205Y205975D01*
X218333Y205975D01*
X215752Y208556D01*
X205975Y218333D01*
X205975Y380818D01*
X205961Y380908D01*
X205953Y380999D01*
X205941Y381028D01*
X205936Y381060D01*
X205893Y381141D01*
X205857Y381225D01*
X205831Y381257D01*
X205820Y381278D01*
X205797Y381300D01*
X205752Y381356D01*
X192024Y395084D01*
X191966Y395126D01*
X191914Y395175D01*
X191867Y395197D01*
X191825Y395227D01*
X191756Y395249D01*
X191691Y395279D01*
X191639Y395285D01*
X191589Y395300D01*
X191518Y395298D01*
X191447Y395306D01*
X191396Y395295D01*
X191344Y395293D01*
X191276Y395269D01*
X191206Y395254D01*
X191162Y395227D01*
X191113Y395209D01*
X191057Y395164D01*
X190995Y395127D01*
X190961Y395088D01*
X190921Y395055D01*
X190882Y394995D01*
X190835Y394941D01*
X190816Y394892D01*
X190788Y394848D01*
X190770Y394779D01*
X190743Y394712D01*
X190735Y394641D01*
X190727Y394610D01*
X190729Y394587D01*
X190725Y394546D01*
X190725Y244533D01*
X106264Y160072D01*
X106252Y160056D01*
X106237Y160043D01*
X106181Y159956D01*
X106120Y159872D01*
X106115Y159853D01*
X106104Y159837D01*
X106078Y159736D01*
X106048Y159637D01*
X106049Y159617D01*
X106044Y159598D01*
X106052Y159495D01*
X106054Y159391D01*
X106061Y159373D01*
X106063Y159353D01*
X106103Y159258D01*
X106139Y159160D01*
X106151Y159145D01*
X106159Y159126D01*
X106264Y158996D01*
X107925Y157335D01*
X109305Y154003D01*
X109305Y150397D01*
X107925Y147065D01*
X105375Y144515D01*
X102043Y143135D01*
X83357Y143135D01*
X80025Y144515D01*
X77475Y147065D01*
X76095Y150397D01*
X76095Y154003D01*
X77475Y157335D01*
X80025Y159885D01*
X83357Y161265D01*
X95758Y161265D01*
X95848Y161279D01*
X95939Y161287D01*
X95968Y161299D01*
X96000Y161304D01*
X96081Y161347D01*
X96165Y161383D01*
X96197Y161409D01*
X96218Y161420D01*
X96240Y161443D01*
X96296Y161488D01*
X182452Y247644D01*
X182505Y247718D01*
X182565Y247788D01*
X182577Y247818D01*
X182596Y247844D01*
X182623Y247931D01*
X182657Y248016D01*
X182661Y248057D01*
X182668Y248079D01*
X182667Y248111D01*
X182675Y248182D01*
X182675Y398314D01*
X182661Y398404D01*
X182653Y398495D01*
X182641Y398524D01*
X182636Y398556D01*
X182593Y398637D01*
X182557Y398721D01*
X182531Y398753D01*
X182520Y398774D01*
X182497Y398796D01*
X182452Y398852D01*
X178571Y402733D01*
X178571Y409467D01*
X183333Y414229D01*
X190067Y414229D01*
X194829Y409467D01*
X194829Y403978D01*
X194843Y403888D01*
X194851Y403797D01*
X194863Y403768D01*
X194868Y403736D01*
X194911Y403655D01*
X194947Y403571D01*
X194973Y403539D01*
X194984Y403518D01*
X195007Y403496D01*
X195052Y403440D01*
X211444Y387048D01*
X214025Y384467D01*
X214025Y221982D01*
X214039Y221892D01*
X214047Y221801D01*
X214059Y221772D01*
X214064Y221740D01*
X214107Y221659D01*
X214143Y221575D01*
X214169Y221543D01*
X214180Y221522D01*
X214203Y221500D01*
X214248Y221444D01*
X221444Y214248D01*
X221518Y214195D01*
X221588Y214135D01*
X221618Y214123D01*
X221644Y214104D01*
X221731Y214077D01*
X221816Y214043D01*
X221857Y214039D01*
X221879Y214032D01*
X221911Y214033D01*
X221982Y214025D01*
X356205Y214025D01*
X356295Y214039D01*
X356386Y214047D01*
X356415Y214059D01*
X356447Y214064D01*
X356528Y214107D01*
X356612Y214143D01*
X356644Y214169D01*
X356665Y214180D01*
X356687Y214203D01*
X356743Y214248D01*
X357802Y215307D01*
X362198Y215307D01*
X365307Y212198D01*
X365307Y207802D01*
X362829Y205324D01*
X362787Y205266D01*
X362738Y205214D01*
X362716Y205167D01*
X362686Y205125D01*
X362664Y205056D01*
X362634Y204991D01*
X362629Y204939D01*
X362613Y204889D01*
X362615Y204818D01*
X362607Y204747D01*
X362618Y204696D01*
X362620Y204644D01*
X362644Y204576D01*
X362659Y204506D01*
X362686Y204461D01*
X362704Y204413D01*
X362749Y204357D01*
X362786Y204295D01*
X362825Y204261D01*
X362858Y204221D01*
X362918Y204182D01*
X362973Y204135D01*
X363021Y204116D01*
X363065Y204088D01*
X363134Y204070D01*
X363201Y204043D01*
X363272Y204035D01*
X363303Y204027D01*
X363326Y204029D01*
X363367Y204025D01*
X836205Y204025D01*
X836295Y204039D01*
X836386Y204047D01*
X836415Y204059D01*
X836447Y204064D01*
X836528Y204107D01*
X836612Y204143D01*
X836644Y204169D01*
X836665Y204180D01*
X836687Y204203D01*
X836743Y204248D01*
X837802Y205307D01*
X842198Y205307D01*
X845307Y202198D01*
X845307Y197802D01*
X842198Y194693D01*
X837802Y194693D01*
X836743Y195752D01*
X836669Y195805D01*
X836599Y195865D01*
X836569Y195877D01*
X836543Y195896D01*
X836456Y195923D01*
X836371Y195957D01*
X836330Y195961D01*
X836308Y195968D01*
X836276Y195967D01*
X836205Y195975D01*
X216882Y195975D01*
X216792Y195961D01*
X216701Y195953D01*
X216672Y195941D01*
X216640Y195936D01*
X216559Y195893D01*
X216475Y195857D01*
X216443Y195831D01*
X216422Y195820D01*
X216400Y195797D01*
X216344Y195752D01*
X152865Y132273D01*
X152796Y132178D01*
X152727Y132084D01*
X152725Y132078D01*
X152721Y132073D01*
X152687Y131962D01*
X152650Y131850D01*
X152651Y131844D01*
X152649Y131838D01*
X152652Y131721D01*
X152653Y131604D01*
X152655Y131597D01*
X152655Y131592D01*
X152661Y131575D01*
X152700Y131443D01*
X152965Y130803D01*
X152965Y127197D01*
X151585Y123865D01*
X149035Y121315D01*
X145703Y119935D01*
X142097Y119935D01*
X141457Y120200D01*
X141343Y120227D01*
X141230Y120256D01*
X141223Y120255D01*
X141217Y120257D01*
X141101Y120246D01*
X140984Y120237D01*
X140979Y120234D01*
X140972Y120233D01*
X140865Y120186D01*
X140758Y120140D01*
X140752Y120136D01*
X140748Y120133D01*
X140734Y120121D01*
X140627Y120035D01*
X111548Y90956D01*
X111495Y90882D01*
X111435Y90812D01*
X111423Y90782D01*
X111404Y90756D01*
X111377Y90669D01*
X111343Y90584D01*
X111339Y90543D01*
X111332Y90521D01*
X111333Y90489D01*
X111325Y90418D01*
X111325Y57786D01*
X111339Y57696D01*
X111347Y57605D01*
X111359Y57576D01*
X111364Y57544D01*
X111407Y57463D01*
X111443Y57379D01*
X111469Y57347D01*
X111480Y57326D01*
X111503Y57304D01*
X111548Y57248D01*
X115429Y53367D01*
X115429Y47878D01*
X115443Y47788D01*
X115451Y47697D01*
X115463Y47668D01*
X115468Y47636D01*
X115511Y47555D01*
X115547Y47471D01*
X115573Y47439D01*
X115584Y47418D01*
X115607Y47396D01*
X115652Y47340D01*
X128744Y34248D01*
X128818Y34195D01*
X128888Y34135D01*
X128918Y34123D01*
X128944Y34104D01*
X129031Y34077D01*
X129116Y34043D01*
X129157Y34039D01*
X129179Y34032D01*
X129211Y34033D01*
X129282Y34025D01*
X151667Y34025D01*
X154025Y31667D01*
X154025Y28333D01*
X151667Y25975D01*
X125633Y25975D01*
G37*
%LPD*%
%LPC*%
G36*
X883196Y67795D02*
X883196Y67795D01*
X880232Y69023D01*
X877963Y71292D01*
X876735Y74256D01*
X876735Y90544D01*
X877963Y93508D01*
X880232Y95777D01*
X880305Y95807D01*
X880404Y95869D01*
X880505Y95929D01*
X880509Y95934D01*
X880514Y95937D01*
X880588Y96026D01*
X880665Y96116D01*
X880667Y96122D01*
X880671Y96127D01*
X880713Y96234D01*
X880757Y96344D01*
X880758Y96352D01*
X880759Y96356D01*
X880760Y96374D01*
X880775Y96511D01*
X880775Y185938D01*
X880761Y186028D01*
X880753Y186119D01*
X880741Y186149D01*
X880736Y186181D01*
X880693Y186261D01*
X880657Y186345D01*
X880631Y186377D01*
X880620Y186398D01*
X880597Y186420D01*
X880552Y186476D01*
X844811Y222217D01*
X844811Y239461D01*
X844797Y239552D01*
X844789Y239642D01*
X844777Y239672D01*
X844772Y239704D01*
X844729Y239785D01*
X844693Y239869D01*
X844667Y239901D01*
X844656Y239922D01*
X844633Y239944D01*
X844588Y240000D01*
X843364Y241224D01*
X843306Y241266D01*
X843254Y241315D01*
X843207Y241337D01*
X843165Y241367D01*
X843096Y241388D01*
X843031Y241419D01*
X842979Y241424D01*
X842929Y241440D01*
X842858Y241438D01*
X842787Y241446D01*
X842736Y241435D01*
X842684Y241433D01*
X842616Y241409D01*
X842546Y241393D01*
X842501Y241367D01*
X842453Y241349D01*
X842397Y241304D01*
X842335Y241267D01*
X842301Y241228D01*
X842261Y241195D01*
X842222Y241135D01*
X842175Y241080D01*
X842156Y241032D01*
X842128Y240988D01*
X842110Y240919D01*
X842083Y240852D01*
X842075Y240781D01*
X842067Y240750D01*
X842069Y240726D01*
X842065Y240685D01*
X842065Y226656D01*
X840837Y223692D01*
X838568Y221423D01*
X835604Y220195D01*
X832396Y220195D01*
X829432Y221423D01*
X827163Y223692D01*
X825935Y226656D01*
X825935Y242944D01*
X827163Y245908D01*
X827835Y246580D01*
X827876Y246638D01*
X827926Y246690D01*
X827948Y246737D01*
X827978Y246779D01*
X827999Y246848D01*
X828029Y246913D01*
X828035Y246965D01*
X828050Y247015D01*
X828049Y247086D01*
X828056Y247157D01*
X828045Y247208D01*
X828044Y247260D01*
X828019Y247328D01*
X828004Y247398D01*
X827977Y247443D01*
X827960Y247491D01*
X827915Y247547D01*
X827878Y247609D01*
X827838Y247643D01*
X827806Y247683D01*
X827746Y247722D01*
X827691Y247769D01*
X827643Y247788D01*
X827599Y247816D01*
X827529Y247834D01*
X827463Y247861D01*
X827392Y247869D01*
X827360Y247877D01*
X827337Y247875D01*
X827296Y247879D01*
X818235Y247879D01*
X758726Y307388D01*
X758652Y307441D01*
X758582Y307501D01*
X758552Y307513D01*
X758526Y307532D01*
X758439Y307559D01*
X758354Y307593D01*
X758313Y307597D01*
X758291Y307604D01*
X758259Y307603D01*
X758188Y307611D01*
X738503Y307611D01*
X729371Y316743D01*
X729371Y338922D01*
X729357Y339012D01*
X729349Y339103D01*
X729337Y339132D01*
X729332Y339164D01*
X729289Y339245D01*
X729253Y339329D01*
X729227Y339361D01*
X729216Y339382D01*
X729193Y339404D01*
X729148Y339460D01*
X705696Y362912D01*
X705622Y362965D01*
X705552Y363025D01*
X705522Y363037D01*
X705496Y363056D01*
X705409Y363083D01*
X705324Y363117D01*
X705283Y363121D01*
X705261Y363128D01*
X705229Y363127D01*
X705158Y363135D01*
X692757Y363135D01*
X689425Y364515D01*
X686875Y367065D01*
X685495Y370397D01*
X685495Y374003D01*
X686875Y377335D01*
X688536Y378996D01*
X688548Y379012D01*
X688563Y379024D01*
X688619Y379111D01*
X688680Y379195D01*
X688685Y379214D01*
X688696Y379231D01*
X688722Y379332D01*
X688752Y379430D01*
X688751Y379450D01*
X688756Y379470D01*
X688748Y379573D01*
X688746Y379676D01*
X688739Y379695D01*
X688737Y379715D01*
X688697Y379810D01*
X688661Y379907D01*
X688649Y379923D01*
X688641Y379941D01*
X688536Y380072D01*
X666956Y401652D01*
X666882Y401705D01*
X666812Y401765D01*
X666782Y401777D01*
X666756Y401796D01*
X666669Y401823D01*
X666584Y401857D01*
X666543Y401861D01*
X666521Y401868D01*
X666489Y401867D01*
X666418Y401875D01*
X488086Y401875D01*
X487996Y401861D01*
X487905Y401853D01*
X487876Y401841D01*
X487844Y401836D01*
X487763Y401793D01*
X487679Y401757D01*
X487647Y401731D01*
X487626Y401720D01*
X487604Y401697D01*
X487548Y401652D01*
X483667Y397771D01*
X476933Y397771D01*
X472171Y402533D01*
X472171Y409267D01*
X476933Y414029D01*
X483667Y414029D01*
X487548Y410148D01*
X487622Y410095D01*
X487691Y410035D01*
X487722Y410023D01*
X487748Y410004D01*
X487835Y409977D01*
X487920Y409943D01*
X487961Y409939D01*
X487983Y409932D01*
X488015Y409933D01*
X488086Y409925D01*
X670067Y409925D01*
X698504Y381488D01*
X698578Y381435D01*
X698648Y381375D01*
X698678Y381363D01*
X698704Y381344D01*
X698791Y381317D01*
X698876Y381283D01*
X698917Y381279D01*
X698939Y381272D01*
X698971Y381273D01*
X699042Y381265D01*
X711443Y381265D01*
X714775Y379885D01*
X717325Y377335D01*
X718705Y374003D01*
X718705Y370397D01*
X717325Y367065D01*
X715664Y365404D01*
X715652Y365388D01*
X715637Y365376D01*
X715581Y365289D01*
X715520Y365205D01*
X715515Y365186D01*
X715504Y365169D01*
X715478Y365068D01*
X715448Y364970D01*
X715449Y364950D01*
X715444Y364930D01*
X715452Y364827D01*
X715454Y364724D01*
X715461Y364705D01*
X715463Y364685D01*
X715503Y364590D01*
X715539Y364493D01*
X715551Y364477D01*
X715559Y364459D01*
X715664Y364328D01*
X734840Y345152D01*
X737421Y342571D01*
X737421Y330318D01*
X737432Y330247D01*
X737434Y330176D01*
X737452Y330127D01*
X737460Y330075D01*
X737494Y330012D01*
X737519Y329945D01*
X737551Y329904D01*
X737576Y329858D01*
X737628Y329809D01*
X737672Y329753D01*
X737716Y329724D01*
X737754Y329689D01*
X737819Y329658D01*
X737879Y329620D01*
X737930Y329607D01*
X737977Y329585D01*
X738048Y329577D01*
X738118Y329559D01*
X738170Y329564D01*
X738221Y329558D01*
X738292Y329573D01*
X738363Y329579D01*
X738411Y329599D01*
X738462Y329610D01*
X738523Y329647D01*
X738589Y329675D01*
X738645Y329720D01*
X738673Y329736D01*
X738688Y329754D01*
X738720Y329780D01*
X739825Y330885D01*
X743157Y332265D01*
X761843Y332265D01*
X765175Y330885D01*
X767725Y328335D01*
X769105Y325003D01*
X769105Y321397D01*
X767725Y318065D01*
X765175Y315515D01*
X763970Y315016D01*
X763931Y314992D01*
X763888Y314976D01*
X763827Y314928D01*
X763761Y314887D01*
X763732Y314851D01*
X763696Y314823D01*
X763654Y314757D01*
X763604Y314697D01*
X763588Y314654D01*
X763563Y314616D01*
X763544Y314540D01*
X763516Y314468D01*
X763514Y314422D01*
X763503Y314377D01*
X763509Y314300D01*
X763506Y314222D01*
X763518Y314178D01*
X763522Y314132D01*
X763552Y314060D01*
X763574Y313986D01*
X763600Y313948D01*
X763618Y313906D01*
X763704Y313799D01*
X763714Y313784D01*
X763718Y313781D01*
X763723Y313775D01*
X798635Y278863D01*
X798645Y278856D01*
X798652Y278846D01*
X798745Y278784D01*
X798835Y278719D01*
X798846Y278716D01*
X798856Y278709D01*
X798963Y278680D01*
X799070Y278647D01*
X799082Y278647D01*
X799093Y278644D01*
X799204Y278651D01*
X799316Y278653D01*
X799327Y278658D01*
X799339Y278658D01*
X799442Y278700D01*
X799547Y278738D01*
X799556Y278745D01*
X799567Y278750D01*
X799652Y278822D01*
X799739Y278892D01*
X799745Y278902D01*
X799754Y278909D01*
X799811Y279005D01*
X799872Y279099D01*
X799875Y279110D01*
X799881Y279120D01*
X799925Y279282D01*
X800127Y280561D01*
X800618Y282070D01*
X801338Y283483D01*
X802271Y284767D01*
X803393Y285889D01*
X804677Y286822D01*
X806090Y287542D01*
X807599Y288033D01*
X809167Y288281D01*
X815977Y288281D01*
X815977Y278962D01*
X815980Y278942D01*
X815978Y278923D01*
X816000Y278821D01*
X816017Y278719D01*
X816026Y278702D01*
X816030Y278682D01*
X816083Y278593D01*
X816132Y278502D01*
X816146Y278488D01*
X816156Y278471D01*
X816235Y278404D01*
X816310Y278333D01*
X816328Y278324D01*
X816343Y278311D01*
X816439Y278273D01*
X816533Y278229D01*
X816553Y278227D01*
X816571Y278219D01*
X816738Y278201D01*
X817501Y278201D01*
X817501Y278199D01*
X816738Y278199D01*
X816718Y278196D01*
X816699Y278198D01*
X816597Y278176D01*
X816495Y278159D01*
X816478Y278150D01*
X816458Y278146D01*
X816369Y278093D01*
X816278Y278044D01*
X816264Y278030D01*
X816247Y278020D01*
X816180Y277941D01*
X816109Y277866D01*
X816100Y277848D01*
X816087Y277833D01*
X816048Y277737D01*
X816005Y277643D01*
X816003Y277623D01*
X815995Y277605D01*
X815977Y277438D01*
X815977Y268119D01*
X811216Y268119D01*
X811146Y268108D01*
X811074Y268106D01*
X811025Y268088D01*
X810974Y268080D01*
X810910Y268046D01*
X810843Y268021D01*
X810802Y267989D01*
X810756Y267964D01*
X810707Y267912D01*
X810651Y267868D01*
X810623Y267824D01*
X810587Y267786D01*
X810557Y267721D01*
X810518Y267661D01*
X810505Y267610D01*
X810483Y267563D01*
X810475Y267492D01*
X810458Y267422D01*
X810462Y267370D01*
X810456Y267319D01*
X810471Y267248D01*
X810477Y267177D01*
X810497Y267129D01*
X810508Y267078D01*
X810545Y267017D01*
X810573Y266951D01*
X810618Y266895D01*
X810635Y266867D01*
X810652Y266852D01*
X810678Y266820D01*
X821346Y256152D01*
X821420Y256099D01*
X821490Y256039D01*
X821520Y256027D01*
X821546Y256008D01*
X821633Y255981D01*
X821718Y255947D01*
X821759Y255943D01*
X821781Y255936D01*
X821813Y255937D01*
X821884Y255929D01*
X840043Y255929D01*
X851025Y244946D01*
X851063Y244920D01*
X851094Y244886D01*
X851162Y244848D01*
X851225Y244803D01*
X851269Y244789D01*
X851309Y244767D01*
X851386Y244753D01*
X851460Y244730D01*
X851506Y244732D01*
X851551Y244723D01*
X851628Y244735D01*
X851706Y244737D01*
X851749Y244753D01*
X851795Y244759D01*
X851864Y244795D01*
X851937Y244821D01*
X851973Y244850D01*
X852014Y244871D01*
X852068Y244926D01*
X852129Y244975D01*
X852154Y245014D01*
X852186Y245046D01*
X852252Y245166D01*
X852262Y245182D01*
X852263Y245187D01*
X852267Y245193D01*
X852563Y245908D01*
X854832Y248177D01*
X854905Y248207D01*
X855004Y248269D01*
X855105Y248329D01*
X855109Y248334D01*
X855114Y248337D01*
X855188Y248426D01*
X855265Y248516D01*
X855267Y248522D01*
X855271Y248527D01*
X855313Y248634D01*
X855357Y248744D01*
X855358Y248752D01*
X855359Y248756D01*
X855360Y248774D01*
X855375Y248911D01*
X855375Y279318D01*
X855361Y279408D01*
X855353Y279499D01*
X855341Y279528D01*
X855336Y279560D01*
X855293Y279641D01*
X855257Y279725D01*
X855231Y279757D01*
X855220Y279778D01*
X855197Y279800D01*
X855152Y279856D01*
X821096Y313912D01*
X821022Y313965D01*
X820952Y314025D01*
X820922Y314037D01*
X820896Y314056D01*
X820809Y314083D01*
X820724Y314117D01*
X820683Y314121D01*
X820661Y314128D01*
X820629Y314127D01*
X820558Y314135D01*
X808157Y314135D01*
X804825Y315515D01*
X802275Y318065D01*
X800895Y321397D01*
X800895Y325003D01*
X802275Y328335D01*
X803936Y329996D01*
X803948Y330012D01*
X803963Y330024D01*
X804019Y330111D01*
X804080Y330195D01*
X804085Y330214D01*
X804096Y330231D01*
X804122Y330332D01*
X804152Y330430D01*
X804151Y330450D01*
X804156Y330470D01*
X804148Y330573D01*
X804146Y330676D01*
X804139Y330695D01*
X804137Y330715D01*
X804097Y330810D01*
X804061Y330907D01*
X804049Y330923D01*
X804041Y330941D01*
X803936Y331072D01*
X698356Y436652D01*
X698282Y436705D01*
X698212Y436765D01*
X698182Y436777D01*
X698156Y436796D01*
X698069Y436823D01*
X697984Y436857D01*
X697943Y436861D01*
X697921Y436868D01*
X697889Y436867D01*
X697818Y436875D01*
X488086Y436875D01*
X487996Y436861D01*
X487905Y436853D01*
X487876Y436841D01*
X487844Y436836D01*
X487763Y436793D01*
X487679Y436757D01*
X487647Y436731D01*
X487626Y436720D01*
X487604Y436697D01*
X487548Y436652D01*
X483667Y432771D01*
X476933Y432771D01*
X472171Y437533D01*
X472171Y444267D01*
X476933Y449029D01*
X483667Y449029D01*
X487548Y445148D01*
X487622Y445095D01*
X487691Y445035D01*
X487722Y445023D01*
X487748Y445004D01*
X487835Y444977D01*
X487920Y444943D01*
X487961Y444939D01*
X487983Y444932D01*
X488015Y444933D01*
X488086Y444925D01*
X701467Y444925D01*
X813904Y332488D01*
X813978Y332435D01*
X814048Y332375D01*
X814078Y332363D01*
X814104Y332344D01*
X814191Y332317D01*
X814276Y332283D01*
X814317Y332279D01*
X814339Y332272D01*
X814371Y332273D01*
X814442Y332265D01*
X826843Y332265D01*
X830175Y330885D01*
X832725Y328335D01*
X834105Y325003D01*
X834105Y321397D01*
X832725Y318065D01*
X831064Y316404D01*
X831052Y316388D01*
X831037Y316376D01*
X830981Y316289D01*
X830920Y316205D01*
X830915Y316186D01*
X830904Y316169D01*
X830878Y316068D01*
X830848Y315970D01*
X830849Y315950D01*
X830844Y315930D01*
X830852Y315827D01*
X830854Y315724D01*
X830861Y315705D01*
X830863Y315685D01*
X830903Y315590D01*
X830939Y315493D01*
X830951Y315477D01*
X830959Y315459D01*
X831064Y315328D01*
X860844Y285548D01*
X863425Y282967D01*
X863425Y248911D01*
X863443Y248796D01*
X863461Y248680D01*
X863463Y248674D01*
X863464Y248668D01*
X863519Y248565D01*
X863572Y248461D01*
X863577Y248456D01*
X863580Y248451D01*
X863664Y248370D01*
X863748Y248288D01*
X863754Y248285D01*
X863758Y248281D01*
X863775Y248273D01*
X863895Y248207D01*
X863968Y248177D01*
X866237Y245908D01*
X867465Y242944D01*
X867465Y226656D01*
X866237Y223692D01*
X863968Y221423D01*
X861004Y220195D01*
X860055Y220195D01*
X859984Y220184D01*
X859912Y220182D01*
X859863Y220164D01*
X859812Y220156D01*
X859748Y220122D01*
X859681Y220097D01*
X859640Y220065D01*
X859594Y220040D01*
X859545Y219988D01*
X859489Y219944D01*
X859461Y219900D01*
X859425Y219862D01*
X859395Y219797D01*
X859356Y219737D01*
X859343Y219686D01*
X859321Y219639D01*
X859314Y219568D01*
X859296Y219498D01*
X859300Y219446D01*
X859294Y219395D01*
X859310Y219324D01*
X859315Y219253D01*
X859335Y219205D01*
X859347Y219154D01*
X859383Y219093D01*
X859411Y219027D01*
X859456Y218971D01*
X859473Y218943D01*
X859491Y218928D01*
X859516Y218896D01*
X888825Y189587D01*
X888825Y96511D01*
X888843Y96396D01*
X888861Y96280D01*
X888863Y96274D01*
X888864Y96268D01*
X888919Y96165D01*
X888972Y96061D01*
X888977Y96056D01*
X888980Y96051D01*
X889064Y95970D01*
X889148Y95888D01*
X889154Y95885D01*
X889158Y95881D01*
X889175Y95873D01*
X889295Y95807D01*
X889368Y95777D01*
X891637Y93508D01*
X892865Y90544D01*
X892865Y74256D01*
X891637Y71292D01*
X889368Y69023D01*
X886404Y67795D01*
X883196Y67795D01*
G37*
%LPD*%
%LPC*%
G36*
X883196Y220195D02*
X883196Y220195D01*
X880232Y221423D01*
X877963Y223692D01*
X876735Y226656D01*
X876735Y242944D01*
X877963Y245908D01*
X880232Y248177D01*
X880305Y248207D01*
X880404Y248269D01*
X880505Y248329D01*
X880509Y248334D01*
X880514Y248337D01*
X880588Y248426D01*
X880665Y248516D01*
X880667Y248522D01*
X880671Y248527D01*
X880713Y248634D01*
X880757Y248744D01*
X880758Y248752D01*
X880759Y248756D01*
X880760Y248774D01*
X880775Y248911D01*
X880775Y319878D01*
X880764Y319949D01*
X880762Y320022D01*
X880744Y320070D01*
X880736Y320121D01*
X880702Y320185D01*
X880677Y320253D01*
X880644Y320293D01*
X880620Y320338D01*
X880568Y320388D01*
X880523Y320444D01*
X880479Y320472D01*
X880442Y320507D01*
X880376Y320538D01*
X880315Y320577D01*
X880266Y320589D01*
X880219Y320611D01*
X880147Y320619D01*
X880077Y320637D01*
X880026Y320633D01*
X879975Y320638D01*
X879904Y320623D01*
X879832Y320617D01*
X879784Y320597D01*
X879734Y320586D01*
X879709Y320571D01*
X876243Y319135D01*
X857557Y319135D01*
X854225Y320515D01*
X851675Y323065D01*
X850295Y326397D01*
X850295Y330003D01*
X851675Y333335D01*
X854225Y335885D01*
X857557Y337265D01*
X876243Y337265D01*
X879575Y335885D01*
X882125Y333335D01*
X882924Y331405D01*
X882948Y331366D01*
X882964Y331322D01*
X883013Y331262D01*
X883054Y331196D01*
X883089Y331166D01*
X883118Y331130D01*
X883183Y331088D01*
X883243Y331039D01*
X883286Y331022D01*
X883325Y330997D01*
X883400Y330978D01*
X883473Y330951D01*
X883519Y330949D01*
X883563Y330937D01*
X883641Y330943D01*
X883719Y330940D01*
X883763Y330953D01*
X883809Y330956D01*
X883880Y330987D01*
X883955Y331009D01*
X883993Y331035D01*
X884035Y331053D01*
X884141Y331138D01*
X884157Y331149D01*
X884160Y331153D01*
X884166Y331158D01*
X884560Y331552D01*
X918336Y365328D01*
X918348Y365344D01*
X918363Y365357D01*
X918419Y365444D01*
X918480Y365528D01*
X918485Y365547D01*
X918496Y365563D01*
X918522Y365664D01*
X918552Y365763D01*
X918551Y365783D01*
X918556Y365802D01*
X918548Y365905D01*
X918546Y366009D01*
X918539Y366027D01*
X918537Y366047D01*
X918497Y366142D01*
X918461Y366240D01*
X918449Y366255D01*
X918441Y366274D01*
X918336Y366404D01*
X916675Y368065D01*
X915295Y371397D01*
X915295Y375003D01*
X916675Y378335D01*
X918336Y379996D01*
X918348Y380012D01*
X918363Y380024D01*
X918419Y380111D01*
X918480Y380195D01*
X918485Y380214D01*
X918496Y380231D01*
X918522Y380332D01*
X918552Y380430D01*
X918551Y380450D01*
X918556Y380470D01*
X918548Y380573D01*
X918546Y380676D01*
X918539Y380695D01*
X918537Y380715D01*
X918497Y380810D01*
X918461Y380907D01*
X918449Y380923D01*
X918441Y380941D01*
X918336Y381072D01*
X825956Y473452D01*
X825882Y473505D01*
X825812Y473565D01*
X825782Y473577D01*
X825756Y473596D01*
X825669Y473623D01*
X825584Y473657D01*
X825543Y473661D01*
X825521Y473668D01*
X825489Y473667D01*
X825418Y473675D01*
X489086Y473675D01*
X488996Y473661D01*
X488905Y473653D01*
X488876Y473641D01*
X488844Y473636D01*
X488763Y473593D01*
X488679Y473557D01*
X488647Y473531D01*
X488626Y473520D01*
X488604Y473497D01*
X488548Y473452D01*
X484667Y469571D01*
X477933Y469571D01*
X473171Y474333D01*
X473171Y481067D01*
X477933Y485829D01*
X484667Y485829D01*
X488548Y481948D01*
X488622Y481895D01*
X488691Y481835D01*
X488722Y481823D01*
X488748Y481804D01*
X488835Y481777D01*
X488920Y481743D01*
X488961Y481739D01*
X488983Y481732D01*
X489015Y481733D01*
X489086Y481725D01*
X829067Y481725D01*
X928304Y382488D01*
X928378Y382435D01*
X928448Y382375D01*
X928478Y382363D01*
X928504Y382344D01*
X928591Y382317D01*
X928676Y382283D01*
X928717Y382279D01*
X928739Y382272D01*
X928771Y382273D01*
X928842Y382265D01*
X941243Y382265D01*
X944575Y380885D01*
X947125Y378335D01*
X948505Y375003D01*
X948505Y371397D01*
X947125Y368065D01*
X944575Y365515D01*
X941243Y364135D01*
X928842Y364135D01*
X928752Y364121D01*
X928661Y364113D01*
X928632Y364101D01*
X928600Y364096D01*
X928519Y364053D01*
X928435Y364017D01*
X928403Y363991D01*
X928382Y363980D01*
X928360Y363957D01*
X928304Y363912D01*
X890252Y325860D01*
X890200Y325788D01*
X890160Y325746D01*
X890156Y325736D01*
X890139Y325716D01*
X890127Y325686D01*
X890108Y325660D01*
X890084Y325582D01*
X890057Y325523D01*
X890055Y325508D01*
X890047Y325488D01*
X890043Y325447D01*
X890036Y325425D01*
X890037Y325393D01*
X890029Y325322D01*
X890029Y321743D01*
X889048Y320762D01*
X888995Y320688D01*
X888935Y320618D01*
X888923Y320588D01*
X888904Y320562D01*
X888877Y320475D01*
X888843Y320390D01*
X888839Y320349D01*
X888832Y320327D01*
X888833Y320295D01*
X888825Y320224D01*
X888825Y248911D01*
X888843Y248796D01*
X888861Y248680D01*
X888863Y248674D01*
X888864Y248668D01*
X888919Y248565D01*
X888972Y248461D01*
X888977Y248456D01*
X888980Y248451D01*
X889064Y248370D01*
X889148Y248288D01*
X889154Y248285D01*
X889158Y248281D01*
X889175Y248273D01*
X889295Y248207D01*
X889368Y248177D01*
X891637Y245908D01*
X892865Y242944D01*
X892865Y226656D01*
X891637Y223692D01*
X889368Y221423D01*
X886404Y220195D01*
X883196Y220195D01*
G37*
%LPD*%
%LPC*%
G36*
X756196Y220195D02*
X756196Y220195D01*
X753232Y221423D01*
X750963Y223692D01*
X749735Y226656D01*
X749735Y238625D01*
X749721Y238715D01*
X749713Y238806D01*
X749701Y238836D01*
X749696Y238868D01*
X749653Y238949D01*
X749617Y239033D01*
X749591Y239065D01*
X749580Y239085D01*
X749557Y239108D01*
X749512Y239164D01*
X731674Y257002D01*
X731600Y257055D01*
X731530Y257115D01*
X731500Y257127D01*
X731474Y257146D01*
X731387Y257173D01*
X731302Y257207D01*
X731261Y257211D01*
X731239Y257218D01*
X731207Y257217D01*
X731135Y257225D01*
X488851Y257225D01*
X440025Y306051D01*
X440025Y355629D01*
X440006Y355744D01*
X439989Y355860D01*
X439987Y355866D01*
X439986Y355872D01*
X439932Y355973D01*
X439878Y356079D01*
X439873Y356084D01*
X439870Y356089D01*
X439786Y356169D01*
X439702Y356252D01*
X439696Y356255D01*
X439692Y356259D01*
X439675Y356266D01*
X439555Y356332D01*
X437665Y357115D01*
X435115Y359665D01*
X433735Y362997D01*
X433735Y366603D01*
X435115Y369935D01*
X437665Y372485D01*
X440997Y373865D01*
X444603Y373865D01*
X447935Y372485D01*
X450485Y369935D01*
X451865Y366603D01*
X451865Y362997D01*
X450485Y359665D01*
X447935Y357115D01*
X446045Y356332D01*
X445945Y356271D01*
X445845Y356211D01*
X445841Y356206D01*
X445836Y356203D01*
X445761Y356113D01*
X445685Y356024D01*
X445683Y356018D01*
X445679Y356013D01*
X445637Y355904D01*
X445593Y355796D01*
X445592Y355788D01*
X445591Y355784D01*
X445590Y355765D01*
X445575Y355629D01*
X445575Y308665D01*
X445589Y308575D01*
X445597Y308484D01*
X445609Y308454D01*
X445614Y308422D01*
X445657Y308341D01*
X445693Y308257D01*
X445719Y308225D01*
X445730Y308205D01*
X445753Y308182D01*
X445798Y308126D01*
X490926Y262998D01*
X491000Y262945D01*
X491070Y262885D01*
X491100Y262873D01*
X491126Y262854D01*
X491213Y262827D01*
X491298Y262793D01*
X491339Y262789D01*
X491361Y262782D01*
X491393Y262783D01*
X491465Y262775D01*
X535487Y262775D01*
X535558Y262786D01*
X535630Y262788D01*
X535679Y262806D01*
X535730Y262814D01*
X535793Y262848D01*
X535861Y262873D01*
X535901Y262905D01*
X535948Y262930D01*
X535997Y262982D01*
X536053Y263026D01*
X536081Y263070D01*
X536117Y263108D01*
X536147Y263173D01*
X536186Y263233D01*
X536199Y263284D01*
X536221Y263331D01*
X536228Y263402D01*
X536246Y263472D01*
X536242Y263524D01*
X536248Y263575D01*
X536232Y263646D01*
X536227Y263717D01*
X536206Y263765D01*
X536195Y263816D01*
X536159Y263877D01*
X536130Y263943D01*
X536086Y263999D01*
X536069Y264027D01*
X536051Y264042D01*
X536026Y264074D01*
X467274Y332826D01*
X465425Y334675D01*
X465425Y355629D01*
X465406Y355744D01*
X465389Y355860D01*
X465387Y355866D01*
X465386Y355872D01*
X465332Y355973D01*
X465278Y356079D01*
X465273Y356084D01*
X465270Y356089D01*
X465186Y356169D01*
X465102Y356252D01*
X465096Y356255D01*
X465092Y356259D01*
X465075Y356266D01*
X464955Y356332D01*
X463065Y357115D01*
X460515Y359665D01*
X459135Y362997D01*
X459135Y366603D01*
X460515Y369935D01*
X463065Y372485D01*
X466397Y373865D01*
X470003Y373865D01*
X473335Y372485D01*
X475885Y369935D01*
X477265Y366603D01*
X477265Y362997D01*
X475885Y359665D01*
X473335Y357115D01*
X471445Y356332D01*
X471345Y356271D01*
X471245Y356211D01*
X471241Y356206D01*
X471236Y356203D01*
X471161Y356113D01*
X471085Y356024D01*
X471083Y356018D01*
X471079Y356013D01*
X471037Y355904D01*
X470993Y355796D01*
X470992Y355788D01*
X470991Y355784D01*
X470990Y355765D01*
X470975Y355629D01*
X470975Y337289D01*
X470989Y337199D01*
X470997Y337108D01*
X471009Y337078D01*
X471014Y337046D01*
X471057Y336965D01*
X471093Y336881D01*
X471119Y336849D01*
X471130Y336829D01*
X471153Y336806D01*
X471198Y336750D01*
X540926Y267022D01*
X541000Y266969D01*
X541070Y266909D01*
X541100Y266897D01*
X541126Y266878D01*
X541213Y266851D01*
X541298Y266817D01*
X541339Y266813D01*
X541361Y266806D01*
X541393Y266807D01*
X541465Y266799D01*
X755125Y266799D01*
X756974Y264951D01*
X756974Y264950D01*
X775651Y246273D01*
X775667Y246261D01*
X775680Y246246D01*
X775767Y246190D01*
X775851Y246129D01*
X775870Y246124D01*
X775887Y246113D01*
X775987Y246087D01*
X776086Y246057D01*
X776106Y246058D01*
X776125Y246053D01*
X776228Y246061D01*
X776332Y246063D01*
X776351Y246070D01*
X776370Y246072D01*
X776465Y246112D01*
X776563Y246148D01*
X776578Y246160D01*
X776597Y246168D01*
X776728Y246273D01*
X778632Y248177D01*
X781596Y249405D01*
X784804Y249405D01*
X787768Y248177D01*
X790037Y245908D01*
X791265Y242944D01*
X791265Y226656D01*
X790037Y223692D01*
X787768Y221423D01*
X784804Y220195D01*
X781596Y220195D01*
X778632Y221423D01*
X776363Y223692D01*
X775135Y226656D01*
X775135Y238625D01*
X775121Y238715D01*
X775113Y238806D01*
X775101Y238836D01*
X775096Y238868D01*
X775053Y238949D01*
X775017Y239033D01*
X774991Y239065D01*
X774980Y239085D01*
X774957Y239108D01*
X774912Y239164D01*
X753050Y261026D01*
X752976Y261079D01*
X752906Y261139D01*
X752876Y261151D01*
X752850Y261170D01*
X752763Y261197D01*
X752678Y261231D01*
X752637Y261235D01*
X752615Y261242D01*
X752583Y261241D01*
X752511Y261249D01*
X737113Y261249D01*
X737042Y261238D01*
X736970Y261236D01*
X736921Y261218D01*
X736870Y261210D01*
X736807Y261176D01*
X736739Y261151D01*
X736698Y261119D01*
X736652Y261094D01*
X736603Y261043D01*
X736547Y260998D01*
X736519Y260954D01*
X736483Y260916D01*
X736453Y260851D01*
X736414Y260791D01*
X736401Y260740D01*
X736379Y260693D01*
X736372Y260622D01*
X736354Y260552D01*
X736358Y260500D01*
X736352Y260449D01*
X736368Y260378D01*
X736373Y260307D01*
X736394Y260259D01*
X736405Y260208D01*
X736441Y260147D01*
X736470Y260081D01*
X736514Y260025D01*
X736531Y259997D01*
X736549Y259982D01*
X736574Y259950D01*
X750251Y246273D01*
X750267Y246261D01*
X750280Y246246D01*
X750367Y246190D01*
X750451Y246129D01*
X750470Y246124D01*
X750487Y246113D01*
X750587Y246087D01*
X750686Y246057D01*
X750706Y246058D01*
X750725Y246053D01*
X750828Y246061D01*
X750932Y246063D01*
X750951Y246070D01*
X750970Y246072D01*
X751065Y246112D01*
X751163Y246148D01*
X751178Y246160D01*
X751197Y246168D01*
X751328Y246273D01*
X753232Y248177D01*
X756196Y249405D01*
X759404Y249405D01*
X762368Y248177D01*
X764637Y245908D01*
X765865Y242944D01*
X765865Y226656D01*
X764637Y223692D01*
X762368Y221423D01*
X759404Y220195D01*
X756196Y220195D01*
G37*
%LPD*%
%LPC*%
G36*
X317802Y224693D02*
X317802Y224693D01*
X316743Y225752D01*
X316669Y225805D01*
X316599Y225865D01*
X316569Y225877D01*
X316543Y225896D01*
X316456Y225923D01*
X316371Y225957D01*
X316330Y225961D01*
X316308Y225968D01*
X316276Y225967D01*
X316205Y225975D01*
X238333Y225975D01*
X225975Y238333D01*
X225975Y398818D01*
X225961Y398908D01*
X225953Y398999D01*
X225941Y399028D01*
X225936Y399060D01*
X225893Y399141D01*
X225857Y399225D01*
X225831Y399257D01*
X225820Y399278D01*
X225797Y399300D01*
X225752Y399356D01*
X192360Y432748D01*
X192286Y432801D01*
X192216Y432861D01*
X192186Y432873D01*
X192160Y432892D01*
X192073Y432919D01*
X191988Y432953D01*
X191947Y432957D01*
X191925Y432964D01*
X191893Y432963D01*
X191822Y432971D01*
X187578Y432971D01*
X187488Y432957D01*
X187397Y432949D01*
X187368Y432937D01*
X187336Y432932D01*
X187255Y432889D01*
X187171Y432853D01*
X187139Y432827D01*
X187118Y432816D01*
X187096Y432793D01*
X187040Y432748D01*
X154248Y399956D01*
X154195Y399882D01*
X154135Y399812D01*
X154123Y399782D01*
X154104Y399756D01*
X154077Y399669D01*
X154043Y399584D01*
X154039Y399543D01*
X154032Y399521D01*
X154033Y399489D01*
X154025Y399418D01*
X154025Y329033D01*
X151444Y326452D01*
X105864Y280872D01*
X105852Y280856D01*
X105837Y280843D01*
X105781Y280756D01*
X105720Y280672D01*
X105715Y280653D01*
X105704Y280637D01*
X105678Y280536D01*
X105648Y280437D01*
X105649Y280417D01*
X105644Y280398D01*
X105652Y280295D01*
X105654Y280191D01*
X105661Y280173D01*
X105663Y280153D01*
X105703Y280058D01*
X105739Y279960D01*
X105751Y279945D01*
X105759Y279926D01*
X105864Y279796D01*
X107525Y278135D01*
X108905Y274803D01*
X108905Y271197D01*
X107525Y267865D01*
X104975Y265315D01*
X101643Y263935D01*
X82957Y263935D01*
X79625Y265315D01*
X77075Y267865D01*
X75695Y271197D01*
X75695Y274803D01*
X77075Y278135D01*
X79625Y280685D01*
X82957Y282065D01*
X95358Y282065D01*
X95448Y282079D01*
X95539Y282087D01*
X95568Y282099D01*
X95600Y282104D01*
X95681Y282147D01*
X95765Y282183D01*
X95797Y282209D01*
X95818Y282220D01*
X95840Y282243D01*
X95896Y282288D01*
X145752Y332144D01*
X145805Y332218D01*
X145865Y332288D01*
X145877Y332318D01*
X145896Y332344D01*
X145923Y332431D01*
X145957Y332516D01*
X145961Y332557D01*
X145968Y332579D01*
X145967Y332611D01*
X145975Y332682D01*
X145975Y403067D01*
X181348Y438440D01*
X181401Y438514D01*
X181461Y438584D01*
X181473Y438614D01*
X181492Y438640D01*
X181519Y438727D01*
X181553Y438812D01*
X181557Y438853D01*
X181564Y438875D01*
X181563Y438907D01*
X181571Y438978D01*
X181571Y444467D01*
X186333Y449229D01*
X193067Y449229D01*
X197829Y444467D01*
X197829Y438978D01*
X197843Y438888D01*
X197851Y438797D01*
X197863Y438768D01*
X197868Y438736D01*
X197911Y438655D01*
X197947Y438571D01*
X197973Y438539D01*
X197984Y438518D01*
X198007Y438496D01*
X198052Y438440D01*
X234025Y402467D01*
X234025Y241982D01*
X234039Y241892D01*
X234047Y241801D01*
X234059Y241772D01*
X234064Y241740D01*
X234107Y241659D01*
X234143Y241575D01*
X234169Y241543D01*
X234180Y241522D01*
X234203Y241500D01*
X234248Y241444D01*
X241444Y234248D01*
X241518Y234195D01*
X241588Y234135D01*
X241618Y234123D01*
X241644Y234104D01*
X241731Y234077D01*
X241816Y234043D01*
X241857Y234039D01*
X241879Y234032D01*
X241911Y234033D01*
X241982Y234025D01*
X316205Y234025D01*
X316295Y234039D01*
X316386Y234047D01*
X316415Y234059D01*
X316447Y234064D01*
X316528Y234107D01*
X316612Y234143D01*
X316644Y234169D01*
X316665Y234180D01*
X316687Y234203D01*
X316743Y234248D01*
X317802Y235307D01*
X322198Y235307D01*
X325307Y232198D01*
X325307Y227802D01*
X322198Y224693D01*
X317802Y224693D01*
G37*
%LPD*%
%LPC*%
G36*
X287802Y244693D02*
X287802Y244693D01*
X286743Y245752D01*
X286669Y245805D01*
X286599Y245865D01*
X286569Y245877D01*
X286543Y245896D01*
X286456Y245923D01*
X286371Y245957D01*
X286330Y245961D01*
X286308Y245968D01*
X286276Y245967D01*
X286205Y245975D01*
X258333Y245975D01*
X245975Y258333D01*
X245975Y410518D01*
X245961Y410608D01*
X245953Y410699D01*
X245941Y410728D01*
X245936Y410760D01*
X245893Y410841D01*
X245857Y410925D01*
X245831Y410957D01*
X245820Y410978D01*
X245797Y411000D01*
X245752Y411056D01*
X191760Y465048D01*
X191686Y465101D01*
X191616Y465161D01*
X191586Y465173D01*
X191560Y465192D01*
X191473Y465219D01*
X191388Y465253D01*
X191347Y465257D01*
X191325Y465264D01*
X191293Y465263D01*
X191222Y465271D01*
X185733Y465271D01*
X181852Y469152D01*
X181778Y469205D01*
X181709Y469265D01*
X181678Y469277D01*
X181652Y469296D01*
X181565Y469323D01*
X181480Y469357D01*
X181439Y469361D01*
X181417Y469368D01*
X181385Y469367D01*
X181314Y469375D01*
X175282Y469375D01*
X175192Y469361D01*
X175101Y469353D01*
X175072Y469341D01*
X175040Y469336D01*
X174959Y469293D01*
X174875Y469257D01*
X174843Y469231D01*
X174822Y469220D01*
X174800Y469197D01*
X174744Y469152D01*
X106464Y400872D01*
X106452Y400856D01*
X106437Y400843D01*
X106381Y400756D01*
X106320Y400672D01*
X106315Y400653D01*
X106304Y400637D01*
X106278Y400536D01*
X106248Y400437D01*
X106249Y400417D01*
X106244Y400398D01*
X106252Y400295D01*
X106254Y400191D01*
X106261Y400173D01*
X106263Y400153D01*
X106303Y400058D01*
X106339Y399960D01*
X106351Y399945D01*
X106359Y399926D01*
X106464Y399796D01*
X108125Y398135D01*
X109505Y394803D01*
X109505Y391197D01*
X108125Y387865D01*
X105575Y385315D01*
X102243Y383935D01*
X83557Y383935D01*
X80225Y385315D01*
X77675Y387865D01*
X76295Y391197D01*
X76295Y394803D01*
X77675Y398135D01*
X80225Y400685D01*
X83557Y402065D01*
X95958Y402065D01*
X96048Y402079D01*
X96139Y402087D01*
X96168Y402099D01*
X96200Y402104D01*
X96281Y402147D01*
X96365Y402183D01*
X96397Y402209D01*
X96418Y402220D01*
X96440Y402243D01*
X96496Y402288D01*
X169052Y474844D01*
X171633Y477425D01*
X181314Y477425D01*
X181404Y477439D01*
X181495Y477447D01*
X181524Y477459D01*
X181556Y477464D01*
X181637Y477507D01*
X181721Y477543D01*
X181753Y477569D01*
X181774Y477580D01*
X181796Y477603D01*
X181852Y477648D01*
X185733Y481529D01*
X192467Y481529D01*
X197229Y476767D01*
X197229Y471278D01*
X197243Y471188D01*
X197251Y471097D01*
X197263Y471068D01*
X197268Y471036D01*
X197311Y470955D01*
X197347Y470871D01*
X197373Y470839D01*
X197384Y470818D01*
X197407Y470796D01*
X197452Y470740D01*
X251444Y416748D01*
X254025Y414167D01*
X254025Y261982D01*
X254039Y261892D01*
X254047Y261801D01*
X254059Y261772D01*
X254064Y261740D01*
X254107Y261659D01*
X254143Y261575D01*
X254169Y261543D01*
X254180Y261522D01*
X254203Y261500D01*
X254248Y261444D01*
X261444Y254248D01*
X261518Y254195D01*
X261588Y254135D01*
X261618Y254123D01*
X261644Y254104D01*
X261731Y254077D01*
X261816Y254043D01*
X261857Y254039D01*
X261879Y254032D01*
X261911Y254033D01*
X261982Y254025D01*
X286205Y254025D01*
X286295Y254039D01*
X286386Y254047D01*
X286415Y254059D01*
X286447Y254064D01*
X286528Y254107D01*
X286612Y254143D01*
X286644Y254169D01*
X286665Y254180D01*
X286687Y254203D01*
X286743Y254248D01*
X287802Y255307D01*
X292198Y255307D01*
X295307Y252198D01*
X295307Y247802D01*
X292198Y244693D01*
X287802Y244693D01*
G37*
%LPD*%
%LPC*%
G36*
X530230Y333209D02*
X530230Y333209D01*
X522820Y336279D01*
X517149Y341950D01*
X514079Y349360D01*
X514079Y357380D01*
X517149Y364790D01*
X522820Y370461D01*
X530230Y373531D01*
X538250Y373531D01*
X545660Y370461D01*
X551331Y364790D01*
X554401Y357380D01*
X554401Y349360D01*
X551331Y341950D01*
X545660Y336279D01*
X538250Y333209D01*
X530230Y333209D01*
G37*
%LPD*%
%LPC*%
G36*
X321950Y333209D02*
X321950Y333209D01*
X314540Y336279D01*
X308869Y341950D01*
X305799Y349360D01*
X305799Y357380D01*
X308869Y364790D01*
X314540Y370461D01*
X321950Y373531D01*
X329970Y373531D01*
X337380Y370461D01*
X343051Y364790D01*
X346121Y357380D01*
X346121Y349360D01*
X343051Y341950D01*
X337380Y336279D01*
X329970Y333209D01*
X321950Y333209D01*
G37*
%LPD*%
%LPC*%
G36*
X247802Y24693D02*
X247802Y24693D01*
X246743Y25752D01*
X246669Y25805D01*
X246599Y25865D01*
X246569Y25877D01*
X246543Y25896D01*
X246456Y25923D01*
X246371Y25957D01*
X246330Y25961D01*
X246308Y25968D01*
X246276Y25967D01*
X246205Y25975D01*
X241233Y25975D01*
X238652Y28556D01*
X172573Y94635D01*
X172478Y94703D01*
X172384Y94773D01*
X172378Y94775D01*
X172373Y94779D01*
X172262Y94813D01*
X172150Y94850D01*
X172144Y94849D01*
X172138Y94851D01*
X172021Y94848D01*
X171904Y94847D01*
X171897Y94845D01*
X171892Y94845D01*
X171875Y94839D01*
X171743Y94800D01*
X171103Y94535D01*
X167497Y94535D01*
X164165Y95915D01*
X161615Y98465D01*
X160235Y101797D01*
X160235Y105403D01*
X161615Y108735D01*
X164165Y111285D01*
X167497Y112665D01*
X171103Y112665D01*
X174435Y111285D01*
X176985Y108735D01*
X178365Y105403D01*
X178365Y101797D01*
X178100Y101157D01*
X178073Y101043D01*
X178044Y100930D01*
X178045Y100923D01*
X178043Y100917D01*
X178054Y100800D01*
X178063Y100684D01*
X178066Y100679D01*
X178067Y100672D01*
X178114Y100565D01*
X178160Y100458D01*
X178164Y100452D01*
X178167Y100448D01*
X178179Y100434D01*
X178265Y100327D01*
X244344Y34248D01*
X244418Y34195D01*
X244488Y34135D01*
X244518Y34123D01*
X244544Y34104D01*
X244631Y34077D01*
X244716Y34043D01*
X244757Y34039D01*
X244779Y34032D01*
X244811Y34033D01*
X244882Y34025D01*
X246205Y34025D01*
X246295Y34039D01*
X246386Y34047D01*
X246415Y34059D01*
X246447Y34064D01*
X246528Y34107D01*
X246612Y34143D01*
X246644Y34169D01*
X246665Y34180D01*
X246687Y34203D01*
X246743Y34248D01*
X247802Y35307D01*
X252198Y35307D01*
X255307Y32198D01*
X255307Y27802D01*
X252198Y24693D01*
X247802Y24693D01*
G37*
%LPD*%
%LPC*%
G36*
X743157Y269135D02*
X743157Y269135D01*
X739825Y270515D01*
X737275Y273065D01*
X735895Y276397D01*
X735895Y280003D01*
X737275Y283335D01*
X739825Y285885D01*
X743157Y287265D01*
X761843Y287265D01*
X765175Y285885D01*
X767725Y283335D01*
X769105Y280003D01*
X769105Y276397D01*
X767725Y273065D01*
X765175Y270515D01*
X761843Y269135D01*
X743157Y269135D01*
G37*
%LPD*%
%LPC*%
G36*
X857557Y364135D02*
X857557Y364135D01*
X854225Y365515D01*
X851675Y368065D01*
X850295Y371397D01*
X850295Y375003D01*
X851675Y378335D01*
X854225Y380885D01*
X857557Y382265D01*
X876243Y382265D01*
X879575Y380885D01*
X882125Y378335D01*
X883505Y375003D01*
X883505Y371397D01*
X882125Y368065D01*
X879575Y365515D01*
X876243Y364135D01*
X857557Y364135D01*
G37*
%LPD*%
%LPC*%
G36*
X627757Y363135D02*
X627757Y363135D01*
X624425Y364515D01*
X621875Y367065D01*
X620495Y370397D01*
X620495Y374003D01*
X621875Y377335D01*
X624425Y379885D01*
X627757Y381265D01*
X646443Y381265D01*
X649775Y379885D01*
X652325Y377335D01*
X653705Y374003D01*
X653705Y370397D01*
X652325Y367065D01*
X649775Y364515D01*
X646443Y363135D01*
X627757Y363135D01*
G37*
%LPD*%
%LPC*%
G36*
X627757Y318135D02*
X627757Y318135D01*
X624425Y319515D01*
X621875Y322065D01*
X620495Y325397D01*
X620495Y329003D01*
X621875Y332335D01*
X624425Y334885D01*
X627757Y336265D01*
X646443Y336265D01*
X649775Y334885D01*
X652325Y332335D01*
X653705Y329003D01*
X653705Y325397D01*
X652325Y322065D01*
X649775Y319515D01*
X646443Y318135D01*
X627757Y318135D01*
G37*
%LPD*%
%LPC*%
G36*
X730796Y220195D02*
X730796Y220195D01*
X727832Y221423D01*
X725563Y223692D01*
X724335Y226656D01*
X724335Y242944D01*
X725563Y245908D01*
X727832Y248177D01*
X730796Y249405D01*
X734004Y249405D01*
X736968Y248177D01*
X739237Y245908D01*
X740465Y242944D01*
X740465Y226656D01*
X739237Y223692D01*
X736968Y221423D01*
X734004Y220195D01*
X730796Y220195D01*
G37*
%LPD*%
%LPC*%
G36*
X806996Y220195D02*
X806996Y220195D01*
X804032Y221423D01*
X801763Y223692D01*
X800535Y226656D01*
X800535Y242944D01*
X801763Y245908D01*
X804032Y248177D01*
X806996Y249405D01*
X810204Y249405D01*
X813168Y248177D01*
X815437Y245908D01*
X816665Y242944D01*
X816665Y226656D01*
X815437Y223692D01*
X813168Y221423D01*
X810204Y220195D01*
X806996Y220195D01*
G37*
%LPD*%
%LPC*%
G36*
X908596Y220195D02*
X908596Y220195D01*
X905632Y221423D01*
X903363Y223692D01*
X902135Y226656D01*
X902135Y242944D01*
X903363Y245908D01*
X905632Y248177D01*
X908596Y249405D01*
X911804Y249405D01*
X914768Y248177D01*
X917037Y245908D01*
X918265Y242944D01*
X918265Y226656D01*
X917037Y223692D01*
X914768Y221423D01*
X911804Y220195D01*
X908596Y220195D01*
G37*
%LPD*%
%LPC*%
G36*
X933996Y220195D02*
X933996Y220195D01*
X931032Y221423D01*
X928763Y223692D01*
X927535Y226656D01*
X927535Y242944D01*
X928763Y245908D01*
X931032Y248177D01*
X933996Y249405D01*
X937204Y249405D01*
X940168Y248177D01*
X942437Y245908D01*
X943665Y242944D01*
X943665Y226656D01*
X942437Y223692D01*
X940168Y221423D01*
X937204Y220195D01*
X933996Y220195D01*
G37*
%LPD*%
%LPC*%
G36*
X959396Y220195D02*
X959396Y220195D01*
X956432Y221423D01*
X954163Y223692D01*
X952935Y226656D01*
X952935Y242944D01*
X954163Y245908D01*
X956432Y248177D01*
X959396Y249405D01*
X962604Y249405D01*
X965568Y248177D01*
X967837Y245908D01*
X969065Y242944D01*
X969065Y226656D01*
X967837Y223692D01*
X965568Y221423D01*
X962604Y220195D01*
X959396Y220195D01*
G37*
%LPD*%
%LPC*%
G36*
X679996Y67795D02*
X679996Y67795D01*
X677032Y69023D01*
X674763Y71292D01*
X673535Y74256D01*
X673535Y90544D01*
X674763Y93508D01*
X677032Y95777D01*
X679996Y97005D01*
X683204Y97005D01*
X686168Y95777D01*
X688437Y93508D01*
X689665Y90544D01*
X689665Y74256D01*
X688437Y71292D01*
X686168Y69023D01*
X683204Y67795D01*
X679996Y67795D01*
G37*
%LPD*%
%LPC*%
G36*
X705396Y67795D02*
X705396Y67795D01*
X702432Y69023D01*
X700163Y71292D01*
X698935Y74256D01*
X698935Y90544D01*
X700163Y93508D01*
X702432Y95777D01*
X705396Y97005D01*
X708604Y97005D01*
X711568Y95777D01*
X713837Y93508D01*
X715065Y90544D01*
X715065Y74256D01*
X713837Y71292D01*
X711568Y69023D01*
X708604Y67795D01*
X705396Y67795D01*
G37*
%LPD*%
%LPC*%
G36*
X730796Y67795D02*
X730796Y67795D01*
X727832Y69023D01*
X725563Y71292D01*
X724335Y74256D01*
X724335Y90544D01*
X725563Y93508D01*
X727832Y95777D01*
X730796Y97005D01*
X734004Y97005D01*
X736968Y95777D01*
X739237Y93508D01*
X740465Y90544D01*
X740465Y74256D01*
X739237Y71292D01*
X736968Y69023D01*
X734004Y67795D01*
X730796Y67795D01*
G37*
%LPD*%
%LPC*%
G36*
X781596Y67795D02*
X781596Y67795D01*
X778632Y69023D01*
X776363Y71292D01*
X775135Y74256D01*
X775135Y90544D01*
X776363Y93508D01*
X778632Y95777D01*
X781596Y97005D01*
X784804Y97005D01*
X787768Y95777D01*
X790037Y93508D01*
X791265Y90544D01*
X791265Y74256D01*
X790037Y71292D01*
X787768Y69023D01*
X784804Y67795D01*
X781596Y67795D01*
G37*
%LPD*%
%LPC*%
G36*
X756196Y67795D02*
X756196Y67795D01*
X753232Y69023D01*
X750963Y71292D01*
X749735Y74256D01*
X749735Y90544D01*
X750963Y93508D01*
X753232Y95777D01*
X756196Y97005D01*
X759404Y97005D01*
X762368Y95777D01*
X764637Y93508D01*
X765865Y90544D01*
X765865Y74256D01*
X764637Y71292D01*
X762368Y69023D01*
X759404Y67795D01*
X756196Y67795D01*
G37*
%LPD*%
%LPC*%
G36*
X832396Y67795D02*
X832396Y67795D01*
X829432Y69023D01*
X827163Y71292D01*
X825935Y74256D01*
X825935Y90544D01*
X827163Y93508D01*
X829432Y95777D01*
X832396Y97005D01*
X835604Y97005D01*
X838568Y95777D01*
X840837Y93508D01*
X842065Y90544D01*
X842065Y74256D01*
X840837Y71292D01*
X838568Y69023D01*
X835604Y67795D01*
X832396Y67795D01*
G37*
%LPD*%
%LPC*%
G36*
X857796Y67795D02*
X857796Y67795D01*
X854832Y69023D01*
X852563Y71292D01*
X851335Y74256D01*
X851335Y90544D01*
X852563Y93508D01*
X854832Y95777D01*
X857796Y97005D01*
X861004Y97005D01*
X863968Y95777D01*
X866237Y93508D01*
X867465Y90544D01*
X867465Y74256D01*
X866237Y71292D01*
X863968Y69023D01*
X861004Y67795D01*
X857796Y67795D01*
G37*
%LPD*%
%LPC*%
G36*
X806996Y67795D02*
X806996Y67795D01*
X804032Y69023D01*
X801763Y71292D01*
X800535Y74256D01*
X800535Y90544D01*
X801763Y93508D01*
X804032Y95777D01*
X806996Y97005D01*
X810204Y97005D01*
X813168Y95777D01*
X815437Y93508D01*
X816665Y90544D01*
X816665Y74256D01*
X815437Y71292D01*
X813168Y69023D01*
X810204Y67795D01*
X806996Y67795D01*
G37*
%LPD*%
%LPC*%
G36*
X908596Y67795D02*
X908596Y67795D01*
X905632Y69023D01*
X903363Y71292D01*
X902135Y74256D01*
X902135Y90544D01*
X903363Y93508D01*
X905632Y95777D01*
X908596Y97005D01*
X911804Y97005D01*
X914768Y95777D01*
X917037Y93508D01*
X918265Y90544D01*
X918265Y74256D01*
X917037Y71292D01*
X914768Y69023D01*
X911804Y67795D01*
X908596Y67795D01*
G37*
%LPD*%
%LPC*%
G36*
X603796Y220195D02*
X603796Y220195D01*
X600832Y221423D01*
X598563Y223692D01*
X597335Y226656D01*
X597335Y242944D01*
X598563Y245908D01*
X600832Y248177D01*
X603796Y249405D01*
X607004Y249405D01*
X609968Y248177D01*
X612237Y245908D01*
X613465Y242944D01*
X613465Y226656D01*
X612237Y223692D01*
X609968Y221423D01*
X607004Y220195D01*
X603796Y220195D01*
G37*
%LPD*%
%LPC*%
G36*
X629196Y220195D02*
X629196Y220195D01*
X626232Y221423D01*
X623963Y223692D01*
X622735Y226656D01*
X622735Y242944D01*
X623963Y245908D01*
X626232Y248177D01*
X629196Y249405D01*
X632404Y249405D01*
X635368Y248177D01*
X637637Y245908D01*
X638865Y242944D01*
X638865Y226656D01*
X637637Y223692D01*
X635368Y221423D01*
X632404Y220195D01*
X629196Y220195D01*
G37*
%LPD*%
%LPC*%
G36*
X654596Y220195D02*
X654596Y220195D01*
X651632Y221423D01*
X649363Y223692D01*
X648135Y226656D01*
X648135Y242944D01*
X649363Y245908D01*
X651632Y248177D01*
X654596Y249405D01*
X657804Y249405D01*
X660768Y248177D01*
X663037Y245908D01*
X664265Y242944D01*
X664265Y226656D01*
X663037Y223692D01*
X660768Y221423D01*
X657804Y220195D01*
X654596Y220195D01*
G37*
%LPD*%
%LPC*%
G36*
X705396Y220195D02*
X705396Y220195D01*
X702432Y221423D01*
X700163Y223692D01*
X698935Y226656D01*
X698935Y242944D01*
X700163Y245908D01*
X702432Y248177D01*
X705396Y249405D01*
X708604Y249405D01*
X711568Y248177D01*
X713837Y245908D01*
X715065Y242944D01*
X715065Y226656D01*
X713837Y223692D01*
X711568Y221423D01*
X708604Y220195D01*
X705396Y220195D01*
G37*
%LPD*%
%LPC*%
G36*
X654596Y67795D02*
X654596Y67795D01*
X651632Y69023D01*
X649363Y71292D01*
X648135Y74256D01*
X648135Y90544D01*
X649363Y93508D01*
X651632Y95777D01*
X654596Y97005D01*
X657804Y97005D01*
X660768Y95777D01*
X663037Y93508D01*
X664265Y90544D01*
X664265Y74256D01*
X663037Y71292D01*
X660768Y69023D01*
X657804Y67795D01*
X654596Y67795D01*
G37*
%LPD*%
%LPC*%
G36*
X629196Y67795D02*
X629196Y67795D01*
X626232Y69023D01*
X623963Y71292D01*
X622735Y74256D01*
X622735Y90544D01*
X623963Y93508D01*
X626232Y95777D01*
X629196Y97005D01*
X632404Y97005D01*
X635368Y95777D01*
X637637Y93508D01*
X638865Y90544D01*
X638865Y74256D01*
X637637Y71292D01*
X635368Y69023D01*
X632404Y67795D01*
X629196Y67795D01*
G37*
%LPD*%
%LPC*%
G36*
X135728Y94535D02*
X135728Y94535D01*
X134835Y95428D01*
X134835Y111772D01*
X135728Y112665D01*
X152072Y112665D01*
X152965Y111772D01*
X152965Y95428D01*
X152072Y94535D01*
X135728Y94535D01*
G37*
%LPD*%
%LPC*%
G36*
X383828Y355735D02*
X383828Y355735D01*
X382935Y356628D01*
X382935Y372972D01*
X383828Y373865D01*
X400172Y373865D01*
X401065Y372972D01*
X401065Y356628D01*
X400172Y355735D01*
X383828Y355735D01*
G37*
%LPD*%
%LPC*%
G36*
X287933Y432971D02*
X287933Y432971D01*
X283171Y437733D01*
X283171Y444467D01*
X287933Y449229D01*
X294667Y449229D01*
X299429Y444467D01*
X299429Y437733D01*
X294667Y432971D01*
X287933Y432971D01*
G37*
%LPD*%
%LPC*%
G36*
X375333Y432771D02*
X375333Y432771D01*
X370571Y437533D01*
X370571Y444267D01*
X375333Y449029D01*
X382067Y449029D01*
X386829Y444267D01*
X386829Y437533D01*
X382067Y432771D01*
X375333Y432771D01*
G37*
%LPD*%
%LPC*%
G36*
X284933Y397971D02*
X284933Y397971D01*
X280171Y402733D01*
X280171Y409467D01*
X284933Y414229D01*
X291667Y414229D01*
X296429Y409467D01*
X296429Y402733D01*
X291667Y397971D01*
X284933Y397971D01*
G37*
%LPD*%
%LPC*%
G36*
X375333Y397771D02*
X375333Y397771D01*
X370571Y402533D01*
X370571Y409267D01*
X375333Y414029D01*
X382067Y414029D01*
X386829Y409267D01*
X386829Y402533D01*
X382067Y397771D01*
X375333Y397771D01*
G37*
%LPD*%
%LPC*%
G36*
X129333Y41871D02*
X129333Y41871D01*
X124571Y46633D01*
X124571Y53367D01*
X129333Y58129D01*
X136067Y58129D01*
X140829Y53367D01*
X140829Y46633D01*
X136067Y41871D01*
X129333Y41871D01*
G37*
%LPD*%
%LPC*%
G36*
X376333Y469571D02*
X376333Y469571D01*
X371571Y474333D01*
X371571Y481067D01*
X376333Y485829D01*
X383067Y485829D01*
X387829Y481067D01*
X387829Y474333D01*
X383067Y469571D01*
X376333Y469571D01*
G37*
%LPD*%
%LPC*%
G36*
X287333Y465271D02*
X287333Y465271D01*
X282571Y470033D01*
X282571Y476767D01*
X287333Y481529D01*
X294067Y481529D01*
X298829Y476767D01*
X298829Y470033D01*
X294067Y465271D01*
X287333Y465271D01*
G37*
%LPD*%
%LPC*%
G36*
X591096Y175935D02*
X591096Y175935D01*
X588132Y177163D01*
X585863Y179432D01*
X584635Y182396D01*
X584635Y185604D01*
X585863Y188568D01*
X588132Y190837D01*
X591096Y192065D01*
X594304Y192065D01*
X597268Y190837D01*
X599537Y188568D01*
X600765Y185604D01*
X600765Y182396D01*
X599537Y179432D01*
X597268Y177163D01*
X594304Y175935D01*
X591096Y175935D01*
G37*
%LPD*%
%LPC*%
G36*
X616496Y175935D02*
X616496Y175935D01*
X613532Y177163D01*
X611263Y179432D01*
X610035Y182396D01*
X610035Y185604D01*
X611263Y188568D01*
X613532Y190837D01*
X616496Y192065D01*
X619704Y192065D01*
X622668Y190837D01*
X624937Y188568D01*
X626165Y185604D01*
X626165Y182396D01*
X624937Y179432D01*
X622668Y177163D01*
X619704Y175935D01*
X616496Y175935D01*
G37*
%LPD*%
%LPC*%
G36*
X933423Y329723D02*
X933423Y329723D01*
X933423Y338281D01*
X940233Y338281D01*
X941801Y338033D01*
X943310Y337542D01*
X944723Y336822D01*
X946007Y335889D01*
X947129Y334767D01*
X948062Y333483D01*
X948782Y332070D01*
X949273Y330561D01*
X949405Y329723D01*
X933423Y329723D01*
G37*
%LPD*%
%LPC*%
G36*
X703623Y328723D02*
X703623Y328723D01*
X703623Y337281D01*
X710433Y337281D01*
X712001Y337033D01*
X713510Y336542D01*
X714923Y335822D01*
X716207Y334889D01*
X717329Y333767D01*
X718262Y332483D01*
X718982Y331070D01*
X719473Y329561D01*
X719605Y328723D01*
X703623Y328723D01*
G37*
%LPD*%
%LPC*%
G36*
X93823Y229523D02*
X93823Y229523D01*
X93823Y238081D01*
X100633Y238081D01*
X102201Y237833D01*
X103710Y237342D01*
X105123Y236622D01*
X106407Y235689D01*
X107529Y234567D01*
X108462Y233283D01*
X109182Y231870D01*
X109673Y230361D01*
X109805Y229523D01*
X93823Y229523D01*
G37*
%LPD*%
%LPC*%
G36*
X819023Y279723D02*
X819023Y279723D01*
X819023Y288281D01*
X825833Y288281D01*
X827401Y288033D01*
X828910Y287542D01*
X830323Y286822D01*
X831607Y285889D01*
X832729Y284767D01*
X833662Y283483D01*
X834382Y282070D01*
X834873Y280561D01*
X835005Y279723D01*
X819023Y279723D01*
G37*
%LPD*%
%LPC*%
G36*
X94223Y108723D02*
X94223Y108723D01*
X94223Y117281D01*
X101033Y117281D01*
X102601Y117033D01*
X104110Y116542D01*
X105523Y115822D01*
X106807Y114889D01*
X107929Y113767D01*
X108862Y112483D01*
X109582Y111070D01*
X110073Y109561D01*
X110205Y108723D01*
X94223Y108723D01*
G37*
%LPD*%
%LPC*%
G36*
X94423Y349523D02*
X94423Y349523D01*
X94423Y358081D01*
X101233Y358081D01*
X102801Y357833D01*
X104310Y357342D01*
X105723Y356622D01*
X107007Y355689D01*
X108129Y354567D01*
X109062Y353283D01*
X109782Y351870D01*
X110273Y350361D01*
X110405Y349523D01*
X94423Y349523D01*
G37*
%LPD*%
%LPC*%
G36*
X74795Y229523D02*
X74795Y229523D01*
X74927Y230361D01*
X75418Y231870D01*
X76138Y233283D01*
X77071Y234567D01*
X78193Y235689D01*
X79477Y236622D01*
X80890Y237342D01*
X82399Y237833D01*
X83967Y238081D01*
X90777Y238081D01*
X90777Y229523D01*
X74795Y229523D01*
G37*
%LPD*%
%LPC*%
G36*
X914395Y329723D02*
X914395Y329723D01*
X914527Y330561D01*
X915018Y332070D01*
X915738Y333483D01*
X916671Y334767D01*
X917793Y335889D01*
X919077Y336822D01*
X920490Y337542D01*
X921999Y338033D01*
X923567Y338281D01*
X930377Y338281D01*
X930377Y329723D01*
X914395Y329723D01*
G37*
%LPD*%
%LPC*%
G36*
X684595Y328723D02*
X684595Y328723D01*
X684727Y329561D01*
X685218Y331070D01*
X685938Y332483D01*
X686871Y333767D01*
X687993Y334889D01*
X689277Y335822D01*
X690690Y336542D01*
X692199Y337033D01*
X693767Y337281D01*
X700577Y337281D01*
X700577Y328723D01*
X684595Y328723D01*
G37*
%LPD*%
%LPC*%
G36*
X75195Y108723D02*
X75195Y108723D01*
X75327Y109561D01*
X75818Y111070D01*
X76538Y112483D01*
X77471Y113767D01*
X78593Y114889D01*
X79877Y115822D01*
X81290Y116542D01*
X82799Y117033D01*
X84367Y117281D01*
X91177Y117281D01*
X91177Y108723D01*
X75195Y108723D01*
G37*
%LPD*%
%LPC*%
G36*
X75395Y349523D02*
X75395Y349523D01*
X75527Y350361D01*
X76018Y351870D01*
X76738Y353283D01*
X77671Y354567D01*
X78793Y355689D01*
X80077Y356622D01*
X81490Y357342D01*
X82999Y357833D01*
X84567Y358081D01*
X91377Y358081D01*
X91377Y349523D01*
X75395Y349523D01*
G37*
%LPD*%
%LPC*%
G36*
X94423Y337919D02*
X94423Y337919D01*
X94423Y346477D01*
X110405Y346477D01*
X110273Y345639D01*
X109782Y344130D01*
X109062Y342717D01*
X108129Y341433D01*
X107007Y340311D01*
X105723Y339378D01*
X104310Y338658D01*
X102801Y338167D01*
X101233Y337919D01*
X94423Y337919D01*
G37*
%LPD*%
%LPC*%
G36*
X703623Y317119D02*
X703623Y317119D01*
X703623Y325677D01*
X719605Y325677D01*
X719473Y324839D01*
X718982Y323330D01*
X718262Y321917D01*
X717329Y320633D01*
X716207Y319511D01*
X714923Y318578D01*
X713510Y317858D01*
X712001Y317367D01*
X710433Y317119D01*
X703623Y317119D01*
G37*
%LPD*%
%LPC*%
G36*
X933423Y318119D02*
X933423Y318119D01*
X933423Y326677D01*
X949405Y326677D01*
X949273Y325839D01*
X948782Y324330D01*
X948062Y322917D01*
X947129Y321633D01*
X946007Y320511D01*
X944723Y319578D01*
X943310Y318858D01*
X941801Y318367D01*
X940233Y318119D01*
X933423Y318119D01*
G37*
%LPD*%
%LPC*%
G36*
X819023Y268119D02*
X819023Y268119D01*
X819023Y276677D01*
X835005Y276677D01*
X834873Y275839D01*
X834382Y274330D01*
X833662Y272917D01*
X832729Y271633D01*
X831607Y270511D01*
X830323Y269578D01*
X828910Y268858D01*
X827401Y268367D01*
X825833Y268119D01*
X819023Y268119D01*
G37*
%LPD*%
%LPC*%
G36*
X93823Y217919D02*
X93823Y217919D01*
X93823Y226477D01*
X109805Y226477D01*
X109673Y225639D01*
X109182Y224130D01*
X108462Y222717D01*
X107529Y221433D01*
X106407Y220311D01*
X105123Y219378D01*
X103710Y218658D01*
X102201Y218167D01*
X100633Y217919D01*
X93823Y217919D01*
G37*
%LPD*%
%LPC*%
G36*
X84567Y337919D02*
X84567Y337919D01*
X82999Y338167D01*
X81490Y338658D01*
X80077Y339378D01*
X78793Y340311D01*
X77671Y341433D01*
X76738Y342717D01*
X76018Y344130D01*
X75527Y345639D01*
X75395Y346477D01*
X91377Y346477D01*
X91377Y337919D01*
X84567Y337919D01*
G37*
%LPD*%
%LPC*%
G36*
X693767Y317119D02*
X693767Y317119D01*
X692199Y317367D01*
X690690Y317858D01*
X689277Y318578D01*
X687993Y319511D01*
X686871Y320633D01*
X685938Y321917D01*
X685218Y323330D01*
X684727Y324839D01*
X684595Y325677D01*
X700577Y325677D01*
X700577Y317119D01*
X693767Y317119D01*
G37*
%LPD*%
%LPC*%
G36*
X923567Y318119D02*
X923567Y318119D01*
X921999Y318367D01*
X920490Y318858D01*
X919077Y319578D01*
X917793Y320511D01*
X916671Y321633D01*
X915738Y322917D01*
X915018Y324330D01*
X914527Y325839D01*
X914395Y326677D01*
X930377Y326677D01*
X930377Y318119D01*
X923567Y318119D01*
G37*
%LPD*%
%LPC*%
G36*
X83967Y217919D02*
X83967Y217919D01*
X82399Y218167D01*
X80890Y218658D01*
X79477Y219378D01*
X78193Y220311D01*
X77071Y221433D01*
X76138Y222717D01*
X75418Y224130D01*
X74927Y225639D01*
X74795Y226477D01*
X90777Y226477D01*
X90777Y217919D01*
X83967Y217919D01*
G37*
%LPD*%
%LPC*%
G36*
X84367Y97119D02*
X84367Y97119D01*
X82799Y97367D01*
X81290Y97858D01*
X79877Y98578D01*
X78593Y99511D01*
X77471Y100633D01*
X76538Y101917D01*
X75818Y103330D01*
X75327Y104839D01*
X75195Y105677D01*
X91177Y105677D01*
X91177Y97119D01*
X84367Y97119D01*
G37*
%LPD*%
%LPC*%
G36*
X683123Y236323D02*
X683123Y236323D01*
X683123Y250296D01*
X684249Y250072D01*
X685901Y249387D01*
X687389Y248393D01*
X688653Y247129D01*
X689647Y245641D01*
X690332Y243989D01*
X690681Y242234D01*
X690681Y236323D01*
X683123Y236323D01*
G37*
%LPD*%
%LPC*%
G36*
X683123Y233277D02*
X683123Y233277D01*
X690681Y233277D01*
X690681Y227366D01*
X690332Y225611D01*
X689647Y223959D01*
X688653Y222471D01*
X687389Y221207D01*
X685901Y220213D01*
X684249Y219528D01*
X683123Y219304D01*
X683123Y233277D01*
G37*
%LPD*%
%LPC*%
G36*
X672519Y236323D02*
X672519Y236323D01*
X672519Y242234D01*
X672868Y243989D01*
X673553Y245641D01*
X674547Y247129D01*
X675811Y248393D01*
X677299Y249387D01*
X678951Y250072D01*
X680077Y250296D01*
X680077Y236323D01*
X672519Y236323D01*
G37*
%LPD*%
%LPC*%
G36*
X678951Y219528D02*
X678951Y219528D01*
X677299Y220213D01*
X675811Y221207D01*
X674547Y222471D01*
X673553Y223959D01*
X672868Y225611D01*
X672519Y227366D01*
X672519Y233277D01*
X680077Y233277D01*
X680077Y219304D01*
X678951Y219528D01*
G37*
%LPD*%
%LPC*%
G36*
X418923Y366323D02*
X418923Y366323D01*
X418923Y374765D01*
X419761Y374633D01*
X421270Y374142D01*
X422683Y373422D01*
X423967Y372489D01*
X425089Y371367D01*
X426022Y370083D01*
X426742Y368670D01*
X427233Y367161D01*
X427365Y366323D01*
X418923Y366323D01*
G37*
%LPD*%
%LPC*%
G36*
X418923Y363277D02*
X418923Y363277D01*
X427365Y363277D01*
X427233Y362439D01*
X426742Y360930D01*
X426022Y359517D01*
X425089Y358233D01*
X423967Y357111D01*
X422683Y356178D01*
X421270Y355458D01*
X419761Y354967D01*
X418923Y354835D01*
X418923Y363277D01*
G37*
%LPD*%
%LPC*%
G36*
X407435Y366323D02*
X407435Y366323D01*
X407567Y367161D01*
X408058Y368670D01*
X408778Y370083D01*
X409711Y371367D01*
X410833Y372489D01*
X412117Y373422D01*
X413530Y374142D01*
X415039Y374633D01*
X415877Y374765D01*
X415877Y366323D01*
X407435Y366323D01*
G37*
%LPD*%
%LPC*%
G36*
X415039Y354967D02*
X415039Y354967D01*
X413530Y355458D01*
X412117Y356178D01*
X410833Y357111D01*
X409711Y358233D01*
X408778Y359517D01*
X408058Y360930D01*
X407567Y362439D01*
X407435Y363277D01*
X415877Y363277D01*
X415877Y354835D01*
X415039Y354967D01*
G37*
%LPD*%
%LPC*%
G36*
X702099Y327199D02*
X702099Y327199D01*
X702099Y327201D01*
X702101Y327201D01*
X702101Y327199D01*
X702099Y327199D01*
G37*
%LPD*%
%LPC*%
G36*
X931899Y328199D02*
X931899Y328199D01*
X931899Y328201D01*
X931901Y328201D01*
X931901Y328199D01*
X931899Y328199D01*
G37*
%LPD*%
%LPC*%
G36*
X681599Y234799D02*
X681599Y234799D01*
X681599Y234801D01*
X681601Y234801D01*
X681601Y234799D01*
X681599Y234799D01*
G37*
%LPD*%
%LPC*%
G36*
X92299Y227999D02*
X92299Y227999D01*
X92299Y228001D01*
X92301Y228001D01*
X92301Y227999D01*
X92299Y227999D01*
G37*
%LPD*%
%LPC*%
G36*
X92699Y107199D02*
X92699Y107199D01*
X92699Y107201D01*
X92701Y107201D01*
X92701Y107199D01*
X92699Y107199D01*
G37*
%LPD*%
%LPC*%
G36*
X92899Y347999D02*
X92899Y347999D01*
X92899Y348001D01*
X92901Y348001D01*
X92901Y347999D01*
X92899Y347999D01*
G37*
%LPD*%
%LPC*%
G36*
X417399Y364799D02*
X417399Y364799D01*
X417399Y364801D01*
X417401Y364801D01*
X417401Y364799D01*
X417399Y364799D01*
G37*
%LPD*%
D10*
X143900Y103600D03*
D11*
X220100Y129000D03*
X194700Y129000D03*
X169300Y129000D03*
X143900Y129000D03*
X169300Y103600D03*
X194700Y103600D03*
X220100Y103600D03*
D12*
X290700Y473400D03*
X189100Y473400D03*
X291300Y441100D03*
X189700Y441100D03*
X288300Y406100D03*
X186700Y406100D03*
D13*
X378700Y405900D03*
X480300Y405900D03*
X378700Y440900D03*
X480300Y440900D03*
X379700Y477700D03*
X481300Y477700D03*
D14*
X35440Y393000D02*
X20360Y393000D01*
X85360Y393000D02*
X100440Y393000D01*
X35440Y348000D02*
X20360Y348000D01*
X85360Y348000D02*
X100440Y348000D01*
X34840Y273000D02*
X19760Y273000D01*
X84760Y273000D02*
X99840Y273000D01*
X34840Y228000D02*
X19760Y228000D01*
X84760Y228000D02*
X99840Y228000D01*
X35240Y152200D02*
X20160Y152200D01*
X85160Y152200D02*
X100240Y152200D01*
X35240Y107200D02*
X20160Y107200D01*
X85160Y107200D02*
X100240Y107200D01*
X629560Y372200D02*
X644640Y372200D01*
X694560Y372200D02*
X709640Y372200D01*
X644640Y327200D02*
X629560Y327200D01*
X694560Y327200D02*
X709640Y327200D01*
X744960Y323200D02*
X760040Y323200D01*
X809960Y323200D02*
X825040Y323200D01*
X760040Y278200D02*
X744960Y278200D01*
X809960Y278200D02*
X825040Y278200D01*
X859360Y373200D02*
X874440Y373200D01*
X924360Y373200D02*
X939440Y373200D01*
X874440Y328200D02*
X859360Y328200D01*
X924360Y328200D02*
X939440Y328200D01*
D15*
X605400Y88940D02*
X605400Y75860D01*
X630800Y75860D02*
X630800Y88940D01*
X656200Y88940D02*
X656200Y75860D01*
X681600Y75860D02*
X681600Y88940D01*
X707000Y88940D02*
X707000Y75860D01*
X732400Y75860D02*
X732400Y88940D01*
X757800Y88940D02*
X757800Y75860D01*
X783200Y75860D02*
X783200Y88940D01*
X808600Y88940D02*
X808600Y75860D01*
X834000Y75860D02*
X834000Y88940D01*
X859400Y88940D02*
X859400Y75860D01*
X884800Y75860D02*
X884800Y88940D01*
X605400Y228260D02*
X605400Y241340D01*
X630800Y241340D02*
X630800Y228260D01*
X656200Y228260D02*
X656200Y241340D01*
X808600Y241340D02*
X808600Y228260D01*
X834000Y228260D02*
X834000Y241340D01*
X859400Y241340D02*
X859400Y228260D01*
X884800Y228260D02*
X884800Y241340D01*
X961000Y241340D02*
X961000Y228260D01*
X961000Y88940D02*
X961000Y75860D01*
X935600Y75860D02*
X935600Y88940D01*
X910200Y88940D02*
X910200Y75860D01*
X935600Y228260D02*
X935600Y241340D01*
X910200Y241340D02*
X910200Y228260D01*
X681600Y228260D02*
X681600Y241340D01*
D16*
X618100Y184000D03*
X618100Y158600D03*
X618100Y133200D03*
D15*
X783200Y228260D02*
X783200Y241340D01*
X757800Y241340D02*
X757800Y228260D01*
X732400Y228260D02*
X732400Y241340D01*
X707000Y241340D02*
X707000Y228260D01*
D16*
X592700Y184000D03*
X592700Y158600D03*
X592700Y133200D03*
D10*
X392000Y364800D03*
D11*
X417400Y364800D03*
X442800Y364800D03*
X468200Y364800D03*
D13*
X107300Y50000D03*
X132700Y50000D03*
D17*
X886004Y327304D02*
X931900Y373200D01*
X886004Y327304D02*
X886004Y323410D01*
X884800Y322206D01*
X884800Y234800D01*
X931900Y373200D02*
X827400Y477700D01*
X481300Y477700D01*
X150000Y330700D02*
X92300Y273000D01*
X150000Y401400D02*
X189700Y441100D01*
X150000Y401400D02*
X150000Y330700D01*
X230000Y400800D02*
X189700Y441100D01*
X230000Y400800D02*
X230000Y240000D01*
X240000Y230000D01*
D18*
X320000Y230000D03*
D17*
X240000Y230000D01*
X186700Y246200D02*
X92700Y152200D01*
X186700Y246200D02*
X186700Y406100D01*
X210000Y382800D01*
X210000Y220000D01*
X220000Y210000D01*
D18*
X360000Y210000D03*
D17*
X220000Y210000D01*
X92900Y393000D02*
X173300Y473400D01*
X189100Y473400D01*
X250000Y412500D01*
X250000Y260000D01*
X260000Y250000D01*
D18*
X290000Y250000D03*
D17*
X260000Y250000D01*
X668400Y405900D02*
X702100Y372200D01*
X668400Y405900D02*
X480300Y405900D01*
X733396Y318410D02*
X740170Y311636D01*
X733396Y340904D02*
X702100Y372200D01*
X733396Y340904D02*
X733396Y318410D01*
X740170Y311636D02*
X760170Y311636D01*
X884800Y187920D02*
X884800Y82400D01*
X884800Y187920D02*
X848836Y223884D01*
X819902Y251904D02*
X760170Y311636D01*
X819902Y251904D02*
X838376Y251904D01*
X848836Y241444D01*
X848836Y223884D01*
X859400Y281300D02*
X817500Y323200D01*
X859400Y281300D02*
X859400Y234800D01*
X817500Y323200D02*
X699800Y440900D01*
X480300Y440900D01*
X143900Y129000D02*
X107300Y92400D01*
X107300Y50000D01*
X127300Y30000D01*
X150000Y30000D01*
X143900Y129000D02*
X214900Y200000D01*
D18*
X840000Y200000D03*
D17*
X214900Y200000D01*
D19*
X753976Y264024D02*
X783200Y234800D01*
X753976Y264024D02*
X540000Y264024D01*
X468200Y335824D01*
X468200Y364800D01*
X732600Y260000D02*
X757800Y234800D01*
X732600Y260000D02*
X490000Y260000D01*
X442800Y307200D01*
X442800Y364800D01*
D17*
X220100Y103600D02*
X293700Y30000D01*
X908600Y30000D02*
X961000Y82400D01*
X908600Y30000D02*
X293700Y30000D01*
X194700Y129000D02*
X211700Y146000D01*
D18*
X857000Y146000D03*
D17*
X211700Y146000D01*
D18*
X250000Y30000D03*
D17*
X242900Y30000D02*
X169300Y103600D01*
X242900Y30000D02*
X250000Y30000D01*
X169300Y129000D02*
X210300Y170000D01*
D18*
X780000Y170000D03*
D17*
X210300Y170000D01*
X203746Y103600D02*
X194700Y103600D01*
X203746Y103600D02*
X215310Y115164D01*
X274836Y115164D01*
X570000Y70000D02*
X620000Y120000D01*
X850000Y120000D01*
X870000Y140000D01*
X320000Y70000D02*
X274836Y115164D01*
X320000Y70000D02*
X570000Y70000D01*
D18*
X870000Y160000D03*
D17*
X870000Y140000D01*
M02*
