G04 EAGLE Gerber RS-274X export*
G75*
%MOMM*%
%FSLAX34Y34*%
%LPD*%
%IN*%
%IPPOS*%
%AMOC8*
5,1,8,0,0,1.08239X$1,22.5*%
G01*
%ADD10C,0.254000*%


D10*
X0Y0D02*
X1000000Y0D01*
X1000000Y500000D01*
X0Y500000D01*
X0Y0D01*
X55000Y37443D02*
X54927Y36333D01*
X54782Y35229D01*
X54565Y34138D01*
X54277Y33063D01*
X53919Y32009D01*
X53493Y30980D01*
X53001Y29982D01*
X52444Y29018D01*
X51826Y28093D01*
X51148Y27210D01*
X50414Y26373D01*
X49627Y25586D01*
X48790Y24852D01*
X47907Y24174D01*
X46982Y23556D01*
X46018Y22999D01*
X45020Y22507D01*
X43991Y22081D01*
X42937Y21723D01*
X41862Y21435D01*
X40771Y21218D01*
X39667Y21073D01*
X38557Y21000D01*
X37443Y21000D01*
X36333Y21073D01*
X35229Y21218D01*
X34138Y21435D01*
X33063Y21723D01*
X32009Y22081D01*
X30980Y22507D01*
X29982Y22999D01*
X29018Y23556D01*
X28093Y24174D01*
X27210Y24852D01*
X26373Y25586D01*
X25586Y26373D01*
X24852Y27210D01*
X24174Y28093D01*
X23556Y29018D01*
X22999Y29982D01*
X22507Y30980D01*
X22081Y32009D01*
X21723Y33063D01*
X21435Y34138D01*
X21218Y35229D01*
X21073Y36333D01*
X21000Y37443D01*
X21000Y38557D01*
X21073Y39667D01*
X21218Y40771D01*
X21435Y41862D01*
X21723Y42937D01*
X22081Y43991D01*
X22507Y45020D01*
X22999Y46018D01*
X23556Y46982D01*
X24174Y47907D01*
X24852Y48790D01*
X25586Y49627D01*
X26373Y50414D01*
X27210Y51148D01*
X28093Y51826D01*
X29018Y52444D01*
X29982Y53001D01*
X30980Y53493D01*
X32009Y53919D01*
X33063Y54277D01*
X34138Y54565D01*
X35229Y54782D01*
X36333Y54927D01*
X37443Y55000D01*
X38557Y55000D01*
X39667Y54927D01*
X40771Y54782D01*
X41862Y54565D01*
X42937Y54277D01*
X43991Y53919D01*
X45020Y53493D01*
X46018Y53001D01*
X46982Y52444D01*
X47907Y51826D01*
X48790Y51148D01*
X49627Y50414D01*
X50414Y49627D01*
X51148Y48790D01*
X51826Y47907D01*
X52444Y46982D01*
X53001Y46018D01*
X53493Y45020D01*
X53919Y43991D01*
X54277Y42937D01*
X54565Y41862D01*
X54782Y40771D01*
X54927Y39667D01*
X55000Y38557D01*
X55000Y37443D01*
X54000Y461443D02*
X53927Y460333D01*
X53782Y459229D01*
X53565Y458138D01*
X53277Y457063D01*
X52919Y456009D01*
X52493Y454980D01*
X52001Y453982D01*
X51444Y453018D01*
X50826Y452093D01*
X50148Y451210D01*
X49414Y450373D01*
X48627Y449586D01*
X47790Y448852D01*
X46907Y448174D01*
X45982Y447556D01*
X45018Y446999D01*
X44020Y446507D01*
X42991Y446081D01*
X41937Y445723D01*
X40862Y445435D01*
X39771Y445218D01*
X38667Y445073D01*
X37557Y445000D01*
X36443Y445000D01*
X35333Y445073D01*
X34229Y445218D01*
X33138Y445435D01*
X32063Y445723D01*
X31009Y446081D01*
X29980Y446507D01*
X28982Y446999D01*
X28018Y447556D01*
X27093Y448174D01*
X26210Y448852D01*
X25373Y449586D01*
X24586Y450373D01*
X23852Y451210D01*
X23174Y452093D01*
X22556Y453018D01*
X21999Y453982D01*
X21507Y454980D01*
X21081Y456009D01*
X20723Y457063D01*
X20435Y458138D01*
X20218Y459229D01*
X20073Y460333D01*
X20000Y461443D01*
X20000Y462557D01*
X20073Y463667D01*
X20218Y464771D01*
X20435Y465862D01*
X20723Y466937D01*
X21081Y467991D01*
X21507Y469020D01*
X21999Y470018D01*
X22556Y470982D01*
X23174Y471907D01*
X23852Y472790D01*
X24586Y473627D01*
X25373Y474414D01*
X26210Y475148D01*
X27093Y475826D01*
X28018Y476444D01*
X28982Y477001D01*
X29980Y477493D01*
X31009Y477919D01*
X32063Y478277D01*
X33138Y478565D01*
X34229Y478782D01*
X35333Y478927D01*
X36443Y479000D01*
X37557Y479000D01*
X38667Y478927D01*
X39771Y478782D01*
X40862Y478565D01*
X41937Y478277D01*
X42991Y477919D01*
X44020Y477493D01*
X45018Y477001D01*
X45982Y476444D01*
X46907Y475826D01*
X47790Y475148D01*
X48627Y474414D01*
X49414Y473627D01*
X50148Y472790D01*
X50826Y471907D01*
X51444Y470982D01*
X52001Y470018D01*
X52493Y469020D01*
X52919Y467991D01*
X53277Y466937D01*
X53565Y465862D01*
X53782Y464771D01*
X53927Y463667D01*
X54000Y462557D01*
X54000Y461443D01*
X980000Y462443D02*
X979927Y461333D01*
X979782Y460229D01*
X979565Y459138D01*
X979277Y458063D01*
X978919Y457009D01*
X978493Y455980D01*
X978001Y454982D01*
X977444Y454018D01*
X976826Y453093D01*
X976148Y452210D01*
X975414Y451373D01*
X974627Y450586D01*
X973790Y449852D01*
X972907Y449174D01*
X971982Y448556D01*
X971018Y447999D01*
X970020Y447507D01*
X968991Y447081D01*
X967937Y446723D01*
X966862Y446435D01*
X965771Y446218D01*
X964667Y446073D01*
X963557Y446000D01*
X962443Y446000D01*
X961333Y446073D01*
X960229Y446218D01*
X959138Y446435D01*
X958063Y446723D01*
X957009Y447081D01*
X955980Y447507D01*
X954982Y447999D01*
X954018Y448556D01*
X953093Y449174D01*
X952210Y449852D01*
X951373Y450586D01*
X950586Y451373D01*
X949852Y452210D01*
X949174Y453093D01*
X948556Y454018D01*
X947999Y454982D01*
X947507Y455980D01*
X947081Y457009D01*
X946723Y458063D01*
X946435Y459138D01*
X946218Y460229D01*
X946073Y461333D01*
X946000Y462443D01*
X946000Y463557D01*
X946073Y464667D01*
X946218Y465771D01*
X946435Y466862D01*
X946723Y467937D01*
X947081Y468991D01*
X947507Y470020D01*
X947999Y471018D01*
X948556Y471982D01*
X949174Y472907D01*
X949852Y473790D01*
X950586Y474627D01*
X951373Y475414D01*
X952210Y476148D01*
X953093Y476826D01*
X954018Y477444D01*
X954982Y478001D01*
X955980Y478493D01*
X957009Y478919D01*
X958063Y479277D01*
X959138Y479565D01*
X960229Y479782D01*
X961333Y479927D01*
X962443Y480000D01*
X963557Y480000D01*
X964667Y479927D01*
X965771Y479782D01*
X966862Y479565D01*
X967937Y479277D01*
X968991Y478919D01*
X970020Y478493D01*
X971018Y478001D01*
X971982Y477444D01*
X972907Y476826D01*
X973790Y476148D01*
X974627Y475414D01*
X975414Y474627D01*
X976148Y473790D01*
X976826Y472907D01*
X977444Y471982D01*
X978001Y471018D01*
X978493Y470020D01*
X978919Y468991D01*
X979277Y467937D01*
X979565Y466862D01*
X979782Y465771D01*
X979927Y464667D01*
X980000Y463557D01*
X980000Y462443D01*
X980000Y36443D02*
X979927Y35333D01*
X979782Y34229D01*
X979565Y33138D01*
X979277Y32063D01*
X978919Y31009D01*
X978493Y29980D01*
X978001Y28982D01*
X977444Y28018D01*
X976826Y27093D01*
X976148Y26210D01*
X975414Y25373D01*
X974627Y24586D01*
X973790Y23852D01*
X972907Y23174D01*
X971982Y22556D01*
X971018Y21999D01*
X970020Y21507D01*
X968991Y21081D01*
X967937Y20723D01*
X966862Y20435D01*
X965771Y20218D01*
X964667Y20073D01*
X963557Y20000D01*
X962443Y20000D01*
X961333Y20073D01*
X960229Y20218D01*
X959138Y20435D01*
X958063Y20723D01*
X957009Y21081D01*
X955980Y21507D01*
X954982Y21999D01*
X954018Y22556D01*
X953093Y23174D01*
X952210Y23852D01*
X951373Y24586D01*
X950586Y25373D01*
X949852Y26210D01*
X949174Y27093D01*
X948556Y28018D01*
X947999Y28982D01*
X947507Y29980D01*
X947081Y31009D01*
X946723Y32063D01*
X946435Y33138D01*
X946218Y34229D01*
X946073Y35333D01*
X946000Y36443D01*
X946000Y37557D01*
X946073Y38667D01*
X946218Y39771D01*
X946435Y40862D01*
X946723Y41937D01*
X947081Y42991D01*
X947507Y44020D01*
X947999Y45018D01*
X948556Y45982D01*
X949174Y46907D01*
X949852Y47790D01*
X950586Y48627D01*
X951373Y49414D01*
X952210Y50148D01*
X953093Y50826D01*
X954018Y51444D01*
X954982Y52001D01*
X955980Y52493D01*
X957009Y52919D01*
X958063Y53277D01*
X959138Y53565D01*
X960229Y53782D01*
X961333Y53927D01*
X962443Y54000D01*
X963557Y54000D01*
X964667Y53927D01*
X965771Y53782D01*
X966862Y53565D01*
X967937Y53277D01*
X968991Y52919D01*
X970020Y52493D01*
X971018Y52001D01*
X971982Y51444D01*
X972907Y50826D01*
X973790Y50148D01*
X974627Y49414D01*
X975414Y48627D01*
X976148Y47790D01*
X976826Y46907D01*
X977444Y45982D01*
X978001Y45018D01*
X978493Y44020D01*
X978919Y42991D01*
X979277Y41937D01*
X979565Y40862D01*
X979782Y39771D01*
X979927Y38667D01*
X980000Y37557D01*
X980000Y36443D01*
X335960Y352933D02*
X335884Y352064D01*
X335732Y351204D01*
X335506Y350360D01*
X335208Y349540D01*
X334839Y348748D01*
X334402Y347992D01*
X333901Y347277D01*
X333340Y346608D01*
X332722Y345990D01*
X332053Y345429D01*
X331338Y344928D01*
X330582Y344491D01*
X329790Y344122D01*
X328970Y343824D01*
X328126Y343598D01*
X327267Y343446D01*
X326397Y343370D01*
X325523Y343370D01*
X324654Y343446D01*
X323794Y343598D01*
X322950Y343824D01*
X322130Y344122D01*
X321338Y344491D01*
X320582Y344928D01*
X319867Y345429D01*
X319198Y345990D01*
X318580Y346608D01*
X318019Y347277D01*
X317518Y347992D01*
X317081Y348748D01*
X316712Y349540D01*
X316414Y350360D01*
X316188Y351204D01*
X316036Y352064D01*
X315960Y352933D01*
X315960Y353807D01*
X316036Y354677D01*
X316188Y355536D01*
X316414Y356380D01*
X316712Y357200D01*
X317081Y357992D01*
X317518Y358748D01*
X318019Y359463D01*
X318580Y360132D01*
X319198Y360750D01*
X319867Y361311D01*
X320582Y361812D01*
X321338Y362249D01*
X322130Y362618D01*
X322950Y362916D01*
X323794Y363142D01*
X324654Y363294D01*
X325523Y363370D01*
X326397Y363370D01*
X327267Y363294D01*
X328126Y363142D01*
X328970Y362916D01*
X329790Y362618D01*
X330582Y362249D01*
X331338Y361812D01*
X332053Y361311D01*
X332722Y360750D01*
X333340Y360132D01*
X333901Y359463D01*
X334402Y358748D01*
X334839Y357992D01*
X335208Y357200D01*
X335506Y356380D01*
X335732Y355536D01*
X335884Y354677D01*
X335960Y353807D01*
X335960Y352933D01*
X544240Y352933D02*
X544164Y352064D01*
X544012Y351204D01*
X543786Y350360D01*
X543488Y349540D01*
X543119Y348748D01*
X542682Y347992D01*
X542181Y347277D01*
X541620Y346608D01*
X541002Y345990D01*
X540333Y345429D01*
X539618Y344928D01*
X538862Y344491D01*
X538070Y344122D01*
X537250Y343824D01*
X536406Y343598D01*
X535547Y343446D01*
X534677Y343370D01*
X533803Y343370D01*
X532934Y343446D01*
X532074Y343598D01*
X531230Y343824D01*
X530410Y344122D01*
X529618Y344491D01*
X528862Y344928D01*
X528147Y345429D01*
X527478Y345990D01*
X526860Y346608D01*
X526299Y347277D01*
X525798Y347992D01*
X525361Y348748D01*
X524992Y349540D01*
X524694Y350360D01*
X524468Y351204D01*
X524316Y352064D01*
X524240Y352933D01*
X524240Y353807D01*
X524316Y354677D01*
X524468Y355536D01*
X524694Y356380D01*
X524992Y357200D01*
X525361Y357992D01*
X525798Y358748D01*
X526299Y359463D01*
X526860Y360132D01*
X527478Y360750D01*
X528147Y361311D01*
X528862Y361812D01*
X529618Y362249D01*
X530410Y362618D01*
X531230Y362916D01*
X532074Y363142D01*
X532934Y363294D01*
X533803Y363370D01*
X534677Y363370D01*
X535547Y363294D01*
X536406Y363142D01*
X537250Y362916D01*
X538070Y362618D01*
X538862Y362249D01*
X539618Y361812D01*
X540333Y361311D01*
X541002Y360750D01*
X541620Y360132D01*
X542181Y359463D01*
X542682Y358748D01*
X543119Y357992D01*
X543488Y357200D01*
X543786Y356380D01*
X544012Y355536D01*
X544164Y354677D01*
X544240Y353807D01*
X544240Y352933D01*
X544240Y121793D02*
X544164Y120924D01*
X544012Y120064D01*
X543786Y119220D01*
X543488Y118400D01*
X543119Y117608D01*
X542682Y116852D01*
X542181Y116137D01*
X541620Y115468D01*
X541002Y114850D01*
X540333Y114289D01*
X539618Y113788D01*
X538862Y113351D01*
X538070Y112982D01*
X537250Y112684D01*
X536406Y112458D01*
X535547Y112306D01*
X534677Y112230D01*
X533803Y112230D01*
X532934Y112306D01*
X532074Y112458D01*
X531230Y112684D01*
X530410Y112982D01*
X529618Y113351D01*
X528862Y113788D01*
X528147Y114289D01*
X527478Y114850D01*
X526860Y115468D01*
X526299Y116137D01*
X525798Y116852D01*
X525361Y117608D01*
X524992Y118400D01*
X524694Y119220D01*
X524468Y120064D01*
X524316Y120924D01*
X524240Y121793D01*
X524240Y122667D01*
X524316Y123537D01*
X524468Y124396D01*
X524694Y125240D01*
X524992Y126060D01*
X525361Y126852D01*
X525798Y127608D01*
X526299Y128323D01*
X526860Y128992D01*
X527478Y129610D01*
X528147Y130171D01*
X528862Y130672D01*
X529618Y131109D01*
X530410Y131478D01*
X531230Y131776D01*
X532074Y132002D01*
X532934Y132154D01*
X533803Y132230D01*
X534677Y132230D01*
X535547Y132154D01*
X536406Y132002D01*
X537250Y131776D01*
X538070Y131478D01*
X538862Y131109D01*
X539618Y130672D01*
X540333Y130171D01*
X541002Y129610D01*
X541620Y128992D01*
X542181Y128323D01*
X542682Y127608D01*
X543119Y126852D01*
X543488Y126060D01*
X543786Y125240D01*
X544012Y124396D01*
X544164Y123537D01*
X544240Y122667D01*
X544240Y121793D01*
X335960Y121793D02*
X335884Y120924D01*
X335732Y120064D01*
X335506Y119220D01*
X335208Y118400D01*
X334839Y117608D01*
X334402Y116852D01*
X333901Y116137D01*
X333340Y115468D01*
X332722Y114850D01*
X332053Y114289D01*
X331338Y113788D01*
X330582Y113351D01*
X329790Y112982D01*
X328970Y112684D01*
X328126Y112458D01*
X327267Y112306D01*
X326397Y112230D01*
X325523Y112230D01*
X324654Y112306D01*
X323794Y112458D01*
X322950Y112684D01*
X322130Y112982D01*
X321338Y113351D01*
X320582Y113788D01*
X319867Y114289D01*
X319198Y114850D01*
X318580Y115468D01*
X318019Y116137D01*
X317518Y116852D01*
X317081Y117608D01*
X316712Y118400D01*
X316414Y119220D01*
X316188Y120064D01*
X316036Y120924D01*
X315960Y121793D01*
X315960Y122667D01*
X316036Y123537D01*
X316188Y124396D01*
X316414Y125240D01*
X316712Y126060D01*
X317081Y126852D01*
X317518Y127608D01*
X318019Y128323D01*
X318580Y128992D01*
X319198Y129610D01*
X319867Y130171D01*
X320582Y130672D01*
X321338Y131109D01*
X322130Y131478D01*
X322950Y131776D01*
X323794Y132002D01*
X324654Y132154D01*
X325523Y132230D01*
X326397Y132230D01*
X327267Y132154D01*
X328126Y132002D01*
X328970Y131776D01*
X329790Y131478D01*
X330582Y131109D01*
X331338Y130672D01*
X332053Y130171D01*
X332722Y129610D01*
X333340Y128992D01*
X333901Y128323D01*
X334402Y127608D01*
X334839Y126852D01*
X335208Y126060D01*
X335506Y125240D01*
X335732Y124396D01*
X335884Y123537D01*
X335960Y122667D01*
X335960Y121793D01*
M02*
